<svg xmlns="http://www.w3.org/2000/svg" width="640.95" height="657.5" viewBox="0 0 169.585 173.964" version="1.1">
    <defs>
        <linearGradient id="a" x1="-4739" x2="5961" gradientTransform="matrix(.26 0 0 .26 -543 47)" y1="26" y2="26">
            <stop offset="0" stop-color="#27AE60"/>
            <stop offset="1" stop-color="#30C26D"/>
        </linearGradient>
        <linearGradient id="b" x1="-4731" x2="5982" gradientTransform="matrix(.26 0 0 .26 -543 47)" y1="94" y2="94">
            <stop offset="0" stop-color="#27AE60"/>
            <stop offset="1" stop-color="#30C26D"/>
        </linearGradient>
        <linearGradient id="c" x1="-6603" x2="7586" gradientTransform="matrix(.28 0 0 .24 -543 47)" y1="48" y2="48">
            <stop offset="0" stop-color="#27AE60"/>
            <stop offset="1" stop-color="#30C26D"/>
        </linearGradient>
        <linearGradient id="d" x1="-6601" x2="7588" gradientTransform="matrix(.28 0 0 .24 -543 47)" y1="105" y2="105">
            <stop offset="0" stop-color="#27AE60"/>
            <stop offset="1" stop-color="#30C26D"/>
        </linearGradient>
        <linearGradient id="e" x1="-4769" x2="5931" gradientTransform="matrix(.26 0 0 .26 -543 47)" y1="22" y2="22">
            <stop offset="0" stop-color="#27AE60"/>
            <stop offset="1" stop-color="#30C26D"/>
        </linearGradient>
        <linearGradient id="f" x1="-6557" x2="7632" gradientTransform="matrix(.28 0 0 .24 -543 47)" y1="47" y2="47">
            <stop offset="0" stop-color="#27AE60"/>
            <stop offset="1" stop-color="#30C26D"/>
        </linearGradient>
        <linearGradient id="g" x1="-6592" x2="7635" gradientTransform="matrix(.28 0 0 .24 -543 47)" y1="36" y2="36">
            <stop offset="0" stop-color="#27AE60"/>
            <stop offset="1" stop-color="#30C26D"/>
        </linearGradient>
        <linearGradient id="h" x1="-4812" x2="5901" gradientTransform="matrix(.26 0 0 .26 -543 47)" y1="58" y2="58">
            <stop offset="0" stop-color="#27AE60"/>
            <stop offset="1" stop-color="#30C26D"/>
        </linearGradient>
        <linearGradient id="i" x1="-4800" x2="5914" gradientTransform="matrix(.26 0 0 .26 -543 47)" y1="50" y2="50">
            <stop offset="0" stop-color="#27AE60"/>
            <stop offset="1" stop-color="#30C26D"/>
        </linearGradient>
        <linearGradient id="j" x1="-4767" x2="5946" gradientTransform="matrix(.26 0 0 .26 -543 47)" y1="85" y2="85">
            <stop offset="0" stop-color="#27AE60"/>
            <stop offset="1" stop-color="#30C26D"/>
        </linearGradient>
        <linearGradient id="k" x1="-4754" x2="5960" gradientTransform="matrix(.26 0 0 .26 -543 47)" y1="78" y2="78">
            <stop offset="0" stop-color="#27AE60"/>
            <stop offset="1" stop-color="#30C26D"/>
        </linearGradient>
        <linearGradient id="l" x1="-6561" x2="7628" gradientTransform="matrix(.28 0 0 .24 -543 47)" y1="110" y2="110">
            <stop offset="0" stop-color="#27AE60"/>
            <stop offset="1" stop-color="#30C26D"/>
        </linearGradient>
        <linearGradient id="m" x1="-6547" x2="7642" gradientTransform="matrix(.28 0 0 .24 -543 47)" y1="126" y2="126">
            <stop offset="0" stop-color="#27AE60"/>
            <stop offset="1" stop-color="#30C26D"/>
        </linearGradient>
        <linearGradient id="n" x1="-4780" x2="5934" gradientTransform="matrix(.26 0 0 .26 -543 47)" y1="115" y2="115">
            <stop offset="0" stop-color="#27AE60"/>
            <stop offset="1" stop-color="#30C26D"/>
        </linearGradient>
        <linearGradient id="o" x1="-6572" x2="7617" gradientTransform="matrix(.28 0 0 .24 -543 47)" y1="121" y2="121">
            <stop offset="0" stop-color="#27AE60"/>
            <stop offset="1" stop-color="#30C26D"/>
        </linearGradient>
        <linearGradient id="z" x1="-5935" x2="6764" gradientTransform="matrix(.25 0 0 .27 -543 47)" y1="43" y2="43">
            <stop offset="0" stop-color="#27AE60"/>
            <stop offset="1" stop-color="#30C26D"/>
        </linearGradient>
        <linearGradient id="A" x1="-6722" x2="7467" gradientTransform="matrix(.28 0 0 .24 -543 47)" y1="105" y2="105">
            <stop offset="0" stop-color="#27AE60"/>
            <stop offset="1" stop-color="#30C26D"/>
        </linearGradient>
        <linearGradient id="B" x1="-6693" x2="7496" gradientTransform="matrix(.28 0 0 .24 -543 47)" y1="121" y2="121">
            <stop offset="0" stop-color="#27AE60"/>
            <stop offset="1" stop-color="#30C26D"/>
        </linearGradient>
        <linearGradient id="C" x1="-3640" x2="4302" gradientTransform="matrix(.35 0 0 .19 -543 47)" y1="159" y2="159">
            <stop offset="0" stop-color="#27AE60"/>
            <stop offset="1" stop-color="#30C26D"/>
        </linearGradient>
        <linearGradient id="D" x1="-4877" x2="5836" gradientTransform="matrix(.26 0 0 .26 -543 47)" y1="27" y2="27">
            <stop offset="0" stop-color="#27AE60"/>
            <stop offset="1" stop-color="#30C26D"/>
        </linearGradient>
        <linearGradient id="E" x1="-4862" x2="5852" gradientTransform="matrix(.26 0 0 .26 -543 47)" y1="94" y2="94">
            <stop offset="0" stop-color="#27AE60"/>
            <stop offset="1" stop-color="#30C26D"/>
        </linearGradient>
        <linearGradient id="F" x1="-6668" x2="7521" gradientTransform="matrix(.28 0 0 .24 -543 47)" y1="126" y2="126">
            <stop offset="0" stop-color="#27AE60"/>
            <stop offset="1" stop-color="#30C26D"/>
        </linearGradient>
        <linearGradient id="p" x1="2876" x2="7836" gradientTransform="matrix(.13 0 0 .51 -543 47)" y1="100" y2="100">
            <stop offset="0" stop-color="#27AE60"/>
            <stop offset="1" stop-color="#30C26D"/>
        </linearGradient>
        <linearGradient id="q" x1="-2598" x2="8116" gradientTransform="matrix(.26 0 0 .26 -543 47)" y1="207" y2="207">
            <stop offset="0" stop-color="#27AE60"/>
            <stop offset="1" stop-color="#30C26D"/>
        </linearGradient>
        <linearGradient id="r" x1="-2534" x2="8165" gradientTransform="matrix(.26 0 0 .26 -543 47)" y1="169" y2="169">
            <stop offset="0" stop-color="#27AE60"/>
            <stop offset="1" stop-color="#30C26D"/>
        </linearGradient>
        <linearGradient id="s" x1="-4542" x2="9685" gradientTransform="matrix(.28 0 0 .24 -543 47)" y1="196" y2="196">
            <stop offset="0" stop-color="#27AE60"/>
            <stop offset="1" stop-color="#30C26D"/>
        </linearGradient>
        <linearGradient id="t" x1="-2585" x2="8129" gradientTransform="matrix(.26 0 0 .26 -543 47)" y1="199" y2="199">
            <stop offset="0" stop-color="#27AE60"/>
            <stop offset="1" stop-color="#30C26D"/>
        </linearGradient>
        <linearGradient id="u" x1="-4502" x2="9687" gradientTransform="matrix(.28 0 0 .24 -543 47)" y1="207" y2="207">
            <stop offset="0" stop-color="#27AE60"/>
            <stop offset="1" stop-color="#30C26D"/>
        </linearGradient>
        <linearGradient id="v" x1="-2552" x2="8161" gradientTransform="matrix(.26 0 0 .26 -543 47)" y1="234" y2="234">
            <stop offset="0" stop-color="#27AE60"/>
            <stop offset="1" stop-color="#30C26D"/>
        </linearGradient>
        <linearGradient id="w" x1="-4506" x2="9683" gradientTransform="matrix(.28 0 0 .24 -543 47)" y1="270" y2="270">
            <stop offset="0" stop-color="#27AE60"/>
            <stop offset="1" stop-color="#30C26D"/>
        </linearGradient>
        <linearGradient id="x" x1="664" x2="6304" gradientTransform="matrix(.21 0 0 .33 -543 47)" y1="211" y2="211">
            <stop offset="0" stop-color="#27AE60"/>
            <stop offset="1" stop-color="#30C26D"/>
        </linearGradient>
        <linearGradient id="y" x1="-2539" x2="8175" gradientTransform="matrix(.26 0 0 .26 -543 47)" y1="227" y2="227">
            <stop offset="0" stop-color="#27AE60"/>
            <stop offset="1" stop-color="#30C26D"/>
        </linearGradient>
    </defs>
    <g stroke-width=".265">
        <path fill="url(#a)"
              d="M-380.59 55.312l.067.053v.119l-.186.476h-1.283l-.251-.807.013-.093v-.013l.066-.04h.093l.357.146.264-.834.04-.066.08-.026.066.026.04.066.224 1.098.33-.105h.08"
              transform="translate(543.48 11.403)"/>
        <path fill="#27ae60"
              d="M162.89 66.715h-.079l-.33.105-.226-1.098-.04-.066-.065-.026-.08.026-.04.066-.264.834-.357-.146h-.093l-.066.04v.013l-.013.093.251.807h1.283l.186-.476v-.119l-.066-.053m2.526 17.608q-.04 0-.066.04v.013q-.026.04-.013.092l.251.807h1.284l.185-.476v-.119l-.066-.053h-.08l-.33.106-.225-1.098-.04-.066-.066-.027-.08.027-.04.066-.264.833-.357-.145h-.093m4.168 1.918L153.71 95.5l-15.875-9.26V67.72l15.875-9.261 15.875 9.26v18.52m-28.933-14.71l-.45.093-.066.026-.013.027-.013.053v.066h.013l.384.833h1.587l.424-.278.04-.04.013-.04-.014-.078-.079-.067-.397-.105.318-.834v-.092l-.014-.014-.052-.053h-.093l-.74.278-.53-.754-.066-.04-.066-.013-.066.04-.027.066-.092.926m.052 14.129v.066h.014l.383.833h1.588l.423-.277.04-.04.013-.04-.013-.08-.08-.065-.396-.106.317-.834v-.092l-.013-.013-.053-.053h-.093l-.74.277-.53-.754-.066-.04-.066-.012-.066.04-.026.065-.093.926-.45.093-.066.026-.013.027-.013.053M153.18 64.61l-.04-.066-.08-.026-.079.04-.04.065-.211 1.085-.33-.106-.08.014-.066.053v.119l.185.476h1.283l.238-.82v-.093l-.066-.053h-.093l-.37.146-.251-.834m1.931 6.02l-.74.277-.53-.754q-.026-.04-.066-.04l-.066-.013-.066.04-.027.066-.092.926-.45.093-.066.026-.013.027-.014.053v.066h.014l.383.833h1.588l.423-.278.04-.04.013-.039-.013-.08-.08-.065-.396-.106.317-.834v-.092l-.013-.014-.053-.052h-.093m-5.98-2.58l.331.82-.41.12-.066.052-.026.093.026.026.027.04.423.29h1.588l.383-.833.013-.013.014-.066-.027-.04-.013-.026-.066-.04-.437-.08-.106-.925-.026-.066-.066-.04h-.066l-.066.04-.516.754-.754-.265h-.093l-.053.053-.013.013v.093m-5.173 6.892q-.026.04-.013.093l.251.807h1.284l.185-.476v-.12l-.066-.052h-.08l-.33.105-.225-1.098-.04-.066-.066-.026-.08.026-.04.066-.264.834-.357-.146h-.093q-.04 0-.066.04v.013m4.3-2.923l-.04-.067-.066-.026-.08.026-.04.067-.264.833-.357-.146h-.093q-.04 0-.066.04v.013q-.026.04-.013.093l.252.807h1.283l.185-.476v-.119l-.066-.053h-.08l-.33.106-.225-1.098m11.165 8.07v.013q-.026.04-.013.092l.251.807h1.284l.185-.476v-.119l-.066-.053h-.08l-.33.106-.225-1.098-.04-.066-.066-.027-.08.027q-.04.026-.04.066l-.264.833-.357-.145h-.093l-.066.04m-2.606 1.124l-.066-.027-.08.027q-.04.026-.04.066l-.264.833-.357-.145h-.092l-.067.04v.013q-.026.04-.013.092l.252.807h1.283l.185-.476v-.119l-.066-.053h-.08l-.33.106-.225-1.098-.04-.066m-2.804 4.908l-.741.278-.53-.754q-.026-.04-.065-.04l-.067-.013-.066.04-.026.066-.093.926-.45.092-.066.027-.013.026-.013.053v.066h.013l.384.834h1.587l.424-.278.04-.04.012-.04-.013-.079-.08-.066-.396-.106.318-.833v-.093l-.014-.013-.053-.053h-.092m4.127 3.902l-.74.278-.53-.754q-.026-.04-.066-.04l-.066-.013-.066.04-.026.066-.093.926-.45.093-.066.026-.013.027-.013.053v.066h.013l.383.833h1.588l.423-.278.04-.04.013-.039-.013-.08-.08-.066-.396-.105.317-.834v-.092l-.013-.014-.053-.053h-.092m-3.916.252v-.013l-.066-.053h-.08l-.33.105-.225-1.098-.04-.066-.066-.026-.08.026-.04.066-.264.834-.357-.146h-.093l-.066.04v.013q-.026.04-.013.093l.251.807h1.284l.185-.476v-.107m-3.228-1.349l-.013-.013-.053-.053h-.093l-.74.278-.53-.754q-.026-.04-.066-.04l-.066-.013-.066.04-.027.066-.092.926-.45.093-.066.026-.013.027-.014.052v.067h.014l.383.833h1.588l.423-.278.04-.04.013-.04-.013-.079-.08-.066-.397-.106.318-.833v-.093"/>
        <path fill="url(#b)"
              d="M-378.063 72.92h.093l.357.145.265-.833.04-.066.079-.027.066.027.04.066.224 1.098.331-.106h.08l.066.053v.119l-.186.476h-1.283l-.251-.807q-.013-.053.013-.092v-.014q.027-.04.066-.04"
              transform="translate(543.48 11.403)"/>
        <path fill="url(#c)"
              d="M-402.828 60.127l.093-.926.026-.066.066-.04.066.013.067.04.529.754.74-.278h.093l.053.053.013.013v.093l-.317.834.397.105.08.067.012.079-.013.04-.04.04-.423.277h-1.587l-.384-.833h-.013v-.067l.013-.052.013-.027.066-.026.45-.093"
              transform="translate(543.48 11.403)"/>
        <path fill="url(#d)"
              d="M-402.775 74.256l.013-.053.014-.027.066-.026.45-.093.092-.926.027-.066.066-.04.066.014.066.04.529.753.74-.277h.093l.053.053.014.013v.092l-.318.834.397.106.08.066.012.08-.013.039-.04.04-.423.277h-1.587l-.384-.833h-.013v-.066"
              transform="translate(543.48 11.403)"/>
        <path fill="url(#e)"
              d="M-390.3 53.208l.252.834.37-.146h.093l.066.053v.093l-.238.82h-1.284l-.185-.476v-.119l.066-.053.08-.014.33.106.212-1.085.04-.066.08-.04.079.027.04.066"
              transform="translate(543.48 11.403)"/>
        <path fill="url(#f)"
              d="M-388.368 59.227h.092l.053.053.013.014v.092l-.317.834.397.105.08.067.012.079-.013.04-.04.04-.423.277h-1.587l-.384-.833h-.013v-.066l.013-.053.013-.027.066-.026.45-.093.093-.926.026-.066.066-.04.066.014q.04 0 .066.04l.53.753.74-.278"
              transform="translate(543.48 11.403)"/>
        <path fill="url(#g)"
              d="M-394.348 56.648v-.093l.013-.013.053-.053h.093l.754.265.516-.754.066-.04h.066l.066.04.027.066.106.926.436.08.066.039.013.026.027.04-.013.066-.014.013-.383.834h-1.588l-.423-.291-.026-.04-.027-.026.026-.093.067-.053.41-.119-.331-.82"
              transform="translate(543.48 11.403)"/>
        <path fill="url(#h)"
              d="M-399.52 63.54v-.013q.026-.04.066-.04h.092l.357.146.265-.834.04-.066.08-.026.065.026.04.066.225 1.098.33-.105h.08l.066.052v.12l-.185.476h-1.283l-.252-.807q-.013-.053.014-.093"
              transform="translate(543.48 11.403)"/>
        <path fill="url(#i)"
              d="M-395.221 60.617l.225 1.098.33-.106h.08l.066.053v.119l-.185.476h-1.283l-.252-.807q-.013-.053.014-.093v-.013q.026-.04.066-.04h.092l.357.146.265-.833.04-.067.08-.026.065.026.04.067"
              transform="translate(543.48 11.403)"/>
        <path fill="url(#j)"
              d="M-386.662 69.81l.04.067.225 1.098.33-.106h.08l.066.053v.119l-.185.476h-1.283l-.252-.807q-.013-.053.013-.092v-.013l.067-.04h.092l.357.145.265-.833q0-.04.04-.066l.08-.027.065.027"
              transform="translate(543.48 11.403)"/>
        <path fill="url(#k)"
              d="M-384.056 68.686l.066-.04h.093l.357.146.265-.833q0-.04.04-.066l.079-.027.066.027.04.066.225 1.098.33-.106h.08l.066.053v.119l-.185.476h-1.284l-.25-.807q-.014-.053.012-.092v-.014"
              transform="translate(543.48 11.403)"/>
        <path fill="url(#l)"
              d="M-389.466 74.719h.092l.053.053.013.013v.093l-.317.833.397.106.08.066.012.08-.013.04-.04.039-.423.278h-1.587l-.384-.834h-.013v-.066l.013-.053.013-.026.066-.027.45-.092.093-.927.026-.066.066-.04.066.014q.04 0 .066.04l.53.754.74-.278"
              transform="translate(543.48 11.403)"/>
        <path fill="url(#m)"
              d="M-385.339 78.621h.093l.053.053.013.014v.092l-.318.834.397.105.08.067.013.079-.013.04-.04.04-.423.277h-1.588l-.384-.833h-.013v-.066l.013-.053.014-.027.066-.026.45-.093.092-.926.027-.066.066-.04.066.013q.04 0 .066.04l.53.754.74-.278"
              transform="translate(543.48 11.403)"/>
        <path fill="url(#n)"
              d="M-389.255 78.873v.106l-.185.476h-1.283l-.251-.807q-.014-.053.013-.093v-.013l.066-.04h.092l.358.146.264-.834.04-.066.08-.026.065.026.04.066.225 1.098.33-.105h.08l.066.053v.013"
              transform="translate(543.48 11.403)"/>
        <path fill="url(#o)"
              d="M-392.483 77.523v.093l-.317.833.397.106.08.066.012.08-.013.04-.04.04-.423.277h-1.587l-.384-.833h-.013v-.067l.013-.053.013-.026.066-.026.45-.093.093-.926.026-.066.066-.04.067.013q.04 0 .066.04l.529.754.74-.278h.093l.053.053.013.013"
              transform="translate(543.48 11.403)"/>
    </g>
    <g stroke-width=".265">
        <path fill="#bb8044"
              d="M106.773 72.827l.225.555.529-.251-.225-.543-.53.239m3.136-2.077l1.019-.741-.754-.992-.993.74.728.993m1.826 2.738l-.807-1.826-1.8.794.794 1.826 1.813-.794m7.673-10.636l-.225 1.865 1.891.212.212-1.866-1.878-.211m-5.914 8.4l-.675-.86-.86.688.688.86.847-.688m13.573 7.66l-.317.78.767.318.33-.767-.78-.331m-8.625-13.15l-.185-1.15-1.151.184.185 1.151 1.15-.185m-6.521 20.016l-1.204-.344-.318 1.204 1.191.317.33-1.177m-1.812-3.135l-.264 1.058 1.071.265.265-1.072-1.072-.251m13.891 1.64l1.627.635.648-1.614-1.627-.648-.648 1.627m3.4-3.082l.013 1.203h1.204v-1.203h-1.217m-15.386 3.214l1.733.926.953-1.76-1.746-.938-.94 1.772m2.964 2.276l.502.264.305-.516-.53-.264-.277.516m-11.311-.45V67.72l15.875-9.261 15.875 9.26v18.52l-15.875 9.261-15.875-9.26m27.662-13.282l.317 1.177 1.165-.33-.318-1.165-1.164.318m-.86 1.362l-.847-.119-.105.834.833.106.12-.82m.766.396l-.198 1.747 1.733.198.198-1.733-1.733-.212m.675 9.591l1.058-.489-.463-1.058-1.058.49.463 1.057m-2.805.424l.278 1.852 1.879-.291-.278-1.852-1.879.29"/>
        <path fill="#aa753e"
              d="M129.103 84.733l1.879-.291.278 1.852-1.879.29-.278-1.851M109.909 70.75l-.728-.993.993-.74.754.992-1.019.74m-3.135 2.078l.529-.239.225.543-.53.251-.224-.555m6.72-1.575l-.847.688-.688-.86.86-.688.675.86m5.914-8.4l1.878.211-.212 1.866-1.891-.212.225-1.865m7.99 18.349h1.217v1.203h-1.204l-.013-1.203m-3.4 3.082l.648-1.627 1.627.648-.648 1.614-1.627-.635m-13.89-1.64l1.071.25-.265 1.073-1.071-.265.264-1.058m1.813 3.135l-.33 1.177-1.192-.317.318-1.204 1.204.344m3.056.913l.278-.516.529.264-.305.516-.502-.264m16.351-13.732l1.164-.318.318 1.165-1.164.33-.318-1.177m-.093 1.76l1.733.211-.198 1.733-1.733-.198.198-1.747"/>
        <path fill="#c68a4e"
              d="M111.734 73.488l-1.813.794-.794-1.826 1.8-.794.807 1.826m6.707-7.726l-1.151.185-.185-1.15 1.15-.186.186 1.151m8.625 13.15l.78.33-.33.768-.767-.318.317-.78m-15.055 5.503l.94-1.772 1.746.939-.953 1.76-1.733-.927m18.455-10.094l-.119.82-.833-.105.105-.834.847.12m1.442 9.987l-.463-1.058 1.058-.49.463 1.059-1.058.49"/>
    </g>
    <g stroke-width=".265">
        <path fill="#ecdcb8"
              d="M74.388 64.744l7.276-4.247h.013l3.73-2.183 15.876 9.26v18.521l-15.875 9.26-15.875-9.26v-18.52l4.564-2.66.013-.013h.013l.265-.158m20.836 3.32q-5.067 1.257-7.29 6.152-.397.86-.688 1.812-.41 1.6-1.164 2.91l-.688 1.032q-2.077 2.739-6.072 3.982l.013.013q-3.148.781-5.186 2.964l8.017 4.67.265-.45.53-1.045q.383-.86.634-1.852.675-2.183 1.8-3.797 2.209-3.162 6.124-4.128l-.013-.013q4.75-1.468 6.813-5.053l.53-1.045q.396-.874.634-1.866l.212-.621v-2.302q0-.424-.212-.794-.225-.37-.582-.569h.013l-1.494-.873q-1.02.49-2.21.86l.013.013m4.075 11.1l.199-1.734-1.734-.211-.198 1.746 1.733.198m-.397 6.456q.357-.212.582-.582.212-.37.212-.78v-2.633q-1.812 1.495-4.485 2.328l.013.013q-5.066 1.257-7.289 6.139-.397.86-.688 1.812l-.172.609 11.84-6.906h-.013m-6.654-21.444l-5.279-3.083q-.37 1.045-.886 1.945l-.688 1.032q-2.077 2.738-6.072 3.982l.013.013q-5.067 1.257-7.289 6.152-.397.86-.701 1.812l-.225.78v5.821q1.865-1.653 4.498-2.302l-.013-.013q4.762-1.468 6.826-5.053l.53-1.045q.383-.874.634-1.866.675-2.17 1.8-3.783 2.208-3.175 6.124-4.141l-.013-.013.741-.238m-6.046 25.519l-1.058.49.463 1.058 1.058-.49-.463-1.058m3.003-5.557l1.627.635.649-1.613-1.628-.649-.648 1.627m3.73-3.386l-.317.78.768.318.33-.767-.78-.331m-.318 2.83h1.204v-1.203h-1.217l.013 1.204m-6.866 2.447l-.277.516.502.265.305-.516-.53-.265m-2.487-6.535l1.879-.291-.278-1.852-1.878.29.277 1.853m1.826-4.921h-1.217l.013 1.204h1.204v-1.204m-7.263 7.117l1.733.926.953-1.76-1.747-.939-.939 1.773m-1.124.146l-.265 1.058 1.072.265.264-1.072-1.071-.251M73.13 69.943l1.018-.741-.754-.992-.992.74.728.993M72.734 71l-.225-.542-.53.238.226.555.529-.251m3.32-2.54l-.674-.86-.86.688.688.86.846-.688m13.507 1.243l.834.106.119-.82-.847-.119-.106.833m-5.913-5.41l-.185-1.151-1.151.185.185 1.15 1.15-.184m7.727 2.249q-.53.251-1.059.49l.463 1.057 1.059-.489-.463-1.058"/>
        <path fill="#e5d5b2"
              d="M91.374 66.543l.463 1.058-1.058.49-.463-1.059q.529-.238 1.058-.49m3.85 1.522l-.014-.013q1.191-.37 2.21-.86l1.495.873H98.9q.358.198.582.569.212.37.212.794v2.302l-.212.621q-.238.992-.635 1.866l-.529 1.045q-2.063 3.585-6.813 5.053l.014.013q-3.916.966-6.126 4.128-1.124 1.614-1.799 3.797-.251.992-.635 1.852l-.529 1.045-.265.45-8.016-4.67q2.037-2.183 5.185-2.964l-.013-.013q3.995-1.243 6.072-3.982l.688-1.032q.754-1.31 1.165-2.91.29-.952.687-1.812 2.223-4.895 7.29-6.152m4.074 11.1l-1.733-.2.199-1.745 1.733.211-.199 1.733m-7.05-14.988l-.742.238.014.013q-3.916.966-6.126 4.14-1.124 1.615-1.799 3.784-.251.992-.635 1.866l-.529 1.045q-2.064 3.585-6.826 5.053l.013.013q-2.633.649-4.498 2.302v-5.82l.225-.781q.304-.953.701-1.812 2.223-4.895 7.29-6.152l-.014-.013q3.995-1.244 6.072-3.982l.688-1.032q.516-.9.887-1.945l5.278 3.083m6.654 21.444h.014l-11.84 6.906.171-.609q.292-.952.688-1.812 2.223-4.882 7.29-6.139l-.014-.013q2.673-.833 4.485-2.328v2.633q0 .41-.212.78-.224.37-.582.582M83.648 64.294l-1.15.185-.186-1.151 1.15-.185.186 1.15m5.914 5.411l.105-.833.847.12-.119.82-.833-.107m-13.507-1.243l-.847.688-.688-.86.86-.688.675.86M72.735 71l-.53.251-.225-.555.53-.238.224.542m.397-1.058l-.728-.993.993-.74.754.992-1.019.74m3.572 11.894l1.071.251-.264 1.072-1.072-.265.265-1.058m1.124-.146l.94-1.773 1.746.94-.953 1.76-1.733-.927m7.263-7.117v1.204h-1.204l-.013-1.204h1.217m-1.825 4.921l-.278-1.852 1.878-.291.278 1.852-1.878.291m2.487 6.535l.529.265-.304.516-.503-.265.278-.516m6.866-2.447l-.014-1.204h1.217v1.204h-1.203m.317-2.831l.78.33-.33.768-.767-.318.317-.78m-3.73 3.386l.648-1.627 1.627.649-.648 1.613-1.628-.635m-3.003 5.557l.463 1.058-1.058.49-.463-1.059 1.058-.49"/>
        <path fill="#e0d1af" d="M74.11 64.902l.278-.158-.265.158h-.013"/>
    </g>
    <g stroke-width=".265">
        <path fill="#bb6444"
              d="M61.013 84.177l-1.085.887.886 1.084 1.098-.886-.9-1.085M59.638 73.21l-.582-1.296-1.27.582.569 1.283 1.283-.569m5.517-.278l-1.416-.132-.132 1.402 1.389.133.159-1.403m-6.364-6.561l.146-1.39-1.39-.145-.145 1.402 1.39.133m3.928 2.765l1.323.516.49-1.337-1.31-.502-.503 1.323m-16.774-3.93l-.966 1.02 1.019.965.965-1.019-1.018-.965m-10.12 3.902l-.82 1.125 1.124.82.82-1.138-1.124-.807m4.762 3.294l-2.514-.569-.555 2.527 2.5.556.569-2.514m.701.093l.569 1.283 1.27-.569-.569-1.296-1.27.582m-.238-7.66l-.145 1.402 1.389.133.145-1.39-1.389-.145m16.034 7.567l-2.514-.569-.555 2.527 2.5.556.569-2.514m-.397-2.46l1.918-.609-.608-1.918-1.919.608.609 1.919m-4.564 3.373l1.177-.397-.397-1.19-1.19.41.41 1.177m-3.32-2.924l1.388-.158-.158-1.403-1.39.172.16 1.39m2.05-8.084l1.283-.569-.569-1.27-1.296.57.582 1.27m-6.826 9.127l.595 1.905 1.918-.595-.608-1.918-1.905.608m-.596-2.87l.887 1.085 1.098-.887-.9-1.085-1.085.887m2.778.569l1.337.516.489-1.337-1.323-.502-.503 1.323m4.062-10.53l15.875 9.26v18.52l-15.875 9.26-15.875-9.26v-18.52l15.875-9.26m5.98 20.306l-1.773-1.627-1.64 1.772 1.785 1.64 1.627-1.785m-5.397-.093l1.283-.582-.569-1.27-1.296.57.582 1.282m1.442 2.673l-.648 2.54 2.526.674.662-2.553-2.54-.661m-2.778-2.58h-.014l-1.931.463.45 1.958 1.958-.463-.463-1.958m6.561 5.61l.609 1.917 1.918-.595-.608-1.931-1.919.608m-16.324-5.609l-1.773-1.627-1.64 1.772 1.772 1.64 1.64-1.785m5.729-2.381l.106-.98-2.474-.277-.278 2.46 2.46.278.173-1.481h.013m12.065 4.815l-.146 1.39 1.39.131.145-1.389-1.39-.132m-16.496 0l-.145 1.39 1.389.131.145-1.389-1.389-.132m2.381 3.718l.887 1.084 1.098-.886-.9-1.085-1.085.887m-5.754-.358l.661-2.553-2.54-.661-.661 2.54 2.54.674m8.532.926l1.337.516.489-1.323-1.323-.502-.503 1.31m-4.603 3.743q.635-.278 1.27-.569l-.582-1.296-1.257.582.569 1.283m15.73-1.111l-2.514-.569-.556 2.527 2.5.556.57-2.514m-12.714 1.587l1.918-.608-.608-1.905-1.905.595.595 1.918m8.678-.436l-.397-1.19-1.19.41.41 1.19 1.177-.41m-3.122 3.175l1.39-.212-.226-1.389-1.376.225.212 1.376m10.147-13.877l-.82 1.137 1.15.82.808-1.137-1.138-.82m1.468-.702l.172-1.481h.014l.105-.98-2.46-.277-.291 2.46 2.46.278m1.43 6.31l-.504 1.31 1.323.516.49-1.323-1.31-.502"/>
        <path fill="#c26948"
              d="M63.222 84.323l1.31.502-.49 1.323-1.323-.516.503-1.31M59.637 73.21l-1.283.57-.57-1.284 1.27-.582.583 1.296m3.082-4.074l.503-1.323 1.31.502-.49 1.337-1.323-.516M58.79 66.37l-1.389-.133.146-1.402 1.389.146-.146 1.389m-17.74-1.535l1.39.146-.146 1.389-1.39-.133.146-1.402m.238 7.66l1.27-.582.569 1.296-1.27.57-.569-1.284m-.701-.093l-.569 2.514-2.5-.556.555-2.527 2.514.57m10.266 6.415l-.582-1.283 1.296-.569.57 1.27-1.284.582m5.225 5.702l1.919-.608.608 1.931-1.918.595-.609-1.918M41.05 81.346l1.39.132-.146 1.39-1.39-.133.146-1.389m5.16 4.286l.502-1.31 1.323.503-.49 1.323-1.336-.516m-1.587 4.22l-.595-1.918 1.905-.595.608 1.905-1.918.608m12.713-1.587l-.569 2.514-2.5-.556.556-2.527 2.513.569m2.99-9.551l1.138.82-.807 1.137-1.151-.82.82-1.137"/>
        <path fill="#b55f40"
              d="M65.154 72.932l-.16 1.403-1.388-.133.132-1.402 1.416.132m-29.33-3.823l1.125.807-.82 1.138-1.125-.82.82-1.125m10.12-3.902l1.02.965-.966 1.019-1.019-.966.966-1.018m.264 3.929l.503-1.323 1.323.502-.49 1.337-1.336-.516m-2.778-.57l1.085-.886.9 1.085-1.098.887-.887-1.085m.596 2.87l1.905-.608.608 1.918-1.918.595-.595-1.905m6.826-9.128l-.582-1.27 1.296-.568.57 1.27-1.284.568m-2.05 8.083l-.16-1.389 1.39-.172.158 1.403-1.389.158m3.32 2.924l-.41-1.177 1.191-.41.397 1.19-1.177.397m4.564-3.373l-.609-1.919 1.919-.608.608 1.918-1.918.609m.397 2.46l-.57 2.514-2.5-.556.556-2.527 2.514.57m-.834 6.508l-1.627 1.786-1.786-1.64 1.64-1.773 1.773 1.627m-6.733 0l.463 1.958-1.958.463-.45-1.958 1.931-.463h.014m2.778 2.58l2.54.661-.662 2.553-2.526-.674.648-2.54m5.252-.146l1.389.132-.146 1.39-1.389-.133.146-1.389m-12.065-4.815h-.013l-.172 1.481-2.461-.277.278-2.461 2.474.278-.106.979m-5.728 2.381l-1.64 1.786-1.774-1.64 1.64-1.773 1.774 1.627m-2.077 5.794l-2.54-.674.661-2.54 2.54.661-.661 2.553m5.754.358l1.085-.887.9 1.085-1.098.886-.887-1.084m-1.825 4.312l-.57-1.283 1.258-.582.582 1.296q-.635.291-1.27.57m8.572 3.214l-.212-1.376 1.376-.225.225 1.39-1.389.21m3.122-3.174l-1.177.41-.41-1.19 1.19-.41.397 1.19m8.493-11.404l-2.46-.277.29-2.461 2.461.278-.105.979h-.014l-.172 1.481m-.78 6.165l.9 1.085-1.099.886-.886-1.084 1.085-.887"/>
    </g>
    <g stroke-width=".265">
        <path fill="#a4afaf"
              d="M0 67.866l15.875-9.26 15.875 9.26v18.52l-15.875 9.26L0 86.387v-18.52m15.584-5.438l1.561.728.979-1.15-1.561-.729-.979 1.151m7.792 2.95l-.979 1.151 1.561.728.979-1.15-1.561-.728m-1.574 4.206l1.547-1.812-2.46-1.138-1.535 1.8 2.448 1.15M8.744 66.04l-1.534 1.8 2.447 1.15 1.548-1.812-2.46-1.138M6.931 76.954l-1.534 1.8 2.447 1.15 1.548-1.812-2.46-1.138m3.783-1.918l-1.561-.728-.98 1.151 1.562.728.979-1.151m-5.821 4.432l-1.561-.728-.98 1.15 1.562.729.979-1.151m-.146-4.895l-1.534 1.799 2.447 1.15L7.21 75.71l-2.46-1.137m17.263 7.937l-1.534 1.8 2.447 1.15 1.548-1.812-2.46-1.138m-5.702-7.05l1.56.727.98-1.151-1.561-.728-.98 1.151m3.44 3.281l1.548-1.812-2.46-1.138-1.535 1.799 2.447 1.151m-7.316 7.805l-1.56-.727-.98 1.15 1.561.728.98-1.15m14.856-10.32l1.56.728.98-1.15-1.561-.729-.98 1.151m-1.124 9.525l-1.56-.727-.98 1.15 1.561.728.98-1.15m.423-18.39l-1.561-.727-.98 1.151 1.562.728.979-1.151m-4.194 19.182q-.78-.357-1.561-.727l-.979 1.15 1.561.728.979-1.15m4.194-10.743l-1.561-.728-.98 1.151 1.562.728.979-1.15M9.895 89.283l1.561.727.98-1.15-1.562-.728-.979 1.15m-3.704-.436l1.561.728.98-1.151-1.562-.728-.979 1.151"/>
        <path fill="#9ba6a6"
              d="M6.191 88.847l.98-1.15 1.56.727-.979 1.15-1.56-.727M23.375 65.38l1.561.727-.979 1.151-1.561-.728.979-1.15m-7.792-2.95l.979-1.152 1.561.728-.979 1.151-1.561-.728m-6.84 3.612l2.461 1.138-1.548 1.812-2.447-1.15 1.534-1.8m-3.85 13.428l-.978 1.15-1.561-.727.979-1.151 1.56.728m7.541 7.077l-.979 1.151-1.56-.727.978-1.151 1.561.727m7.316-7.805l-2.447-1.151 1.534-1.8 2.461 1.139-1.548 1.812m-3.44-3.28l.98-1.152 1.56.728-.978 1.15-1.561-.727m5.701 7.051l2.461 1.138-1.548 1.812-2.447-1.15 1.534-1.8m4.578-6.707l-.98 1.151-1.56-.728.979-1.15 1.56.727"/>
        <path fill="#a9b6b6"
              d="M21.802 69.585l-2.448-1.15 1.535-1.8 2.46 1.138-1.547 1.812m-11.086 5.45l-.98 1.152-1.56-.728.979-1.15 1.56.727m-3.783 1.918l2.46 1.138-1.547 1.812-2.447-1.15 1.534-1.8M4.75 74.573l2.46 1.137-1.547 1.813-2.447-1.151 1.534-1.8m17.648 11.973l-.979 1.151-1.561-.727.979-1.151q.78.37 1.561.727m4.194-19.182l-.98 1.15-1.56-.727.979-1.15 1.56.727m-.423 18.388l-.979 1.151-1.56-.727.978-1.151 1.561.727m1.125-9.525l.979-1.15 1.56.727-.978 1.151-1.561-.728M9.895 89.284l.98-1.151 1.56.727-.979 1.151-1.56-.727"/>
    </g>
    <g stroke-width=".265">
        <path fill="#fff" fill-opacity=".2"
              d="M104.272 14.367l-.04-.49 14.79 5.411 14.857-3.135-.026.397-14.896 3.466-14.685-5.65"/>
        <path fill="#9a6937"
              d="M134.832 18.534l-.49-.992-.49-.992.027-.397.94-16.14h.013v18.521m-31.75 0V.014l.026-.014 1.125 13.877.04.49-.503 1.773-.688 2.394"/>
        <path fill="#cd8c4a" d="M104.272 14.367l14.685 5.649v4.828L103.77 16.14l.502-1.773"/>
        <path fill="#c48646" d="M103.082 18.534l.688-2.394 15.187 8.704v2.95l-15.875-9.26"/>
        <path fill="#af783f" d="M118.957 20.016l14.896-3.466.49.992-15.386 7.302v-4.828"/>
        <path fill="#a3703a" d="M134.832 18.534l-15.875 9.26v-2.95l15.385-7.302.49.992"/>
    </g>
    <path fill="#bb8044"
          d="M110.82 104.59l-.939 2.024-1.759-.45-2.077 1.204q-.357.198-.569.569-.225.37-.225.794v14.83q0 .41.225.78.212.37.569.582l5.49 3.201 1.39-.211.198 1.138 5.622 3.28q.37.212.794.212.423 0 .807-.212l4.643-2.698.238-1.323 1.23.463 1.244-.728.503-1.654 1.521.463 3.32-1.931h-.012q.357-.212.582-.582.211-.37.211-.78v-5.636l-.86-2.05.86-2.25v-4.894q0-.424-.211-.794-.225-.37-.582-.57h.013l-3.863-2.248-2.5-.225-1.35-2.024-4.987-2.91q-.384-.225-.807-.225-.424 0-.794.225l-3.81 2.222-.225 1.125h-1.706l-2.183 1.283m-7.157 2.288l15.875-9.26 15.875 9.26V125.4l-15.875 9.26-15.875-9.26v-18.52"
          stroke-width=".265"/>
    <path fill="#ecdcb8"
          d="M98.915 107.222l-3.863-2.249-2.5-.224-1.35-2.025-4.987-2.91q-.384-.225-.807-.225-.424 0-.794.225l-3.81 2.223-.225 1.124h-1.707l-2.182 1.283-.94 2.024-1.76-.45q-1.031.61-2.076 1.204-.357.199-.569.57-.225.37-.225.793v14.83q0 .41.225.78.212.37.569.582l5.49 3.202 1.389-.212.198 1.138 5.623 3.28q.37.212.794.212.423 0 .807-.211l4.643-2.699.238-1.323 1.23.463 1.244-.727.503-1.654 1.521.463 3.32-1.932h-.013q.358-.211.582-.582.212-.37.212-.78v-5.636l-.86-2.05.86-2.25v-4.894q0-.423-.212-.794-.224-.37-.582-.569h.014m2.368 18.032l-15.875 9.26-15.875-9.26v-18.521l15.875-9.26 15.875 9.26v18.52"
          stroke-width=".265"/>
    <path fill="#bb6444"
          d="M51.078 100.105q-.384-.225-.807-.225-.424 0-.794.225l-3.81 2.223-.225 1.124h-1.706l-2.183 1.283-.94 2.024-1.759-.45-2.077 1.204q-.357.199-.569.57-.225.37-.225.793v14.83q0 .41.225.78.212.37.569.583l5.49 3.201 1.39-.212.198 1.138 5.622 3.28q.37.213.794.213.423 0 .807-.212l4.643-2.699.238-1.323 1.23.463 1.244-.727.503-1.654 1.521.463 3.32-1.931h-.012q.357-.212.582-.583.211-.37.211-.78v-5.636l-.86-2.05.86-2.25v-4.894q0-.423-.211-.794-.225-.37-.582-.569h.013l-3.863-2.249-2.5-.224-1.35-2.024-4.987-2.91m-16.682 6.918l15.875-9.26 15.875 9.26v18.52l-15.875 9.261-15.875-9.26v-18.521"
          stroke-width=".265"/>
    <path fill="#a4afaf"
          d="M16.682 100.105q-.384-.225-.807-.225-.423 0-.794.225l-3.81 2.223-.225 1.124H9.34l-2.183 1.283-.94 2.024-1.759-.45-2.077 1.204q-.357.199-.569.57-.224.37-.224.793v14.83q0 .41.224.78.212.37.57.583l5.49 3.201 1.388-.212.199 1.138 5.622 3.28q.37.213.794.213.423 0 .807-.212l4.643-2.699.239-1.323 1.23.463 1.243-.727.503-1.654 1.521.463 3.321-1.931h-.013q.357-.212.582-.583.212-.37.212-.78v-5.636l-.86-2.05.86-2.25v-4.894q0-.423-.212-.794-.225-.37-.582-.569h.013l-3.863-2.249-2.5-.224-1.35-2.024-4.987-2.91M0 107.023l15.875-9.26 15.875 9.26v18.52l-15.875 9.261L0 125.545v-18.521"
          stroke-width=".265"/>
    <path fill="#27ae60"
          d="M153.71 99.735q-.424 0-.794.225l-3.81 2.222-.225 1.124h-1.707l-2.182 1.284-.94 2.024-1.76-.45-2.076 1.204q-.357.198-.569.569-.225.37-.225.793v14.83q0 .41.225.78.212.371.569.583l5.49 3.201 1.389-.211.198 1.137 5.623 3.281q.37.212.794.212.423 0 .807-.212l4.643-2.698.238-1.323 1.23.463 1.244-.728.503-1.654 1.521.463 3.32-1.931h-.013q.358-.212.582-.582.212-.37.212-.78v-5.636l-.86-2.05.86-2.25v-4.895q0-.423-.212-.793-.224-.37-.582-.57h.014l-3.863-2.248-2.5-.225-1.35-2.024-4.987-2.91q-.384-.225-.807-.225m15.875 25.664l-15.875 9.26-15.875-9.26v-18.52l15.875-9.261 15.875 9.26V125.4"
          stroke-width=".265"/>
    <g stroke-width=".265">
        <path fill="#e0d1af" d="M108.175 143.351h-.013l.278-.158-.265.158"/>
        <path fill="#bb8044"
              d="M107.302 150.905l-.53.238.226.556.529-.251-.225-.543m4.564-3.902h-1.27l-2.117 1.23q-.264.145-.41.423-.159.252-.159.556V157.176l.649 1.217-.649.794v2.156q0 .304.16.569.145.264.41.423l2.063 1.204.556.318-.384-.106-.318 1.204 1.191.317.278-.966 5.543 3.241 1.482.874.463.145h.105q.305 0 .582-.145l.265-.146 2.739-1.6.145-.093.53-.794.396-.45.979.132 4.022-2.354.264 1.786 1.879-.291-.278-1.853-1.707.265 1.178-.688q.251-.159.41-.423l.066-.132.08-.437v-5.874l-.556-.82.555-.873v-4.564q0-.304-.145-.556-.159-.278-.41-.423l-2.342-1.363-1.799-1.058h-.873l-.37-.648-.067-.106-2.037-1.19-1.839-1.072.16-1.416-1.88-.212-.092.834q-.225.026-.423.159l-1.561.926-.225.026.013.093-1.879 1.098-.357.674h-.807l-1.323.768-.45 1.098-.436.159m-8.202-.966l15.875-9.26 15.875 9.26v18.52l-15.875 9.261-15.875-9.26v-18.521m27.57 6.998l-.2 1.746 1.734.199.198-1.733-1.733-.212m.093-1.76l.317 1.178 1.165-.33-.318-1.165-1.164.318m.582 11.35l1.058-.49-.463-1.058-1.058.49.463 1.058"/>
        <path fill="#aa753e"
              d="M107.302 150.905l.225.543-.53.25-.224-.555.529-.238m12.012-8.903l.092-.834 1.879.212-.159 1.416-1.085-.635q-.132-.08-.25-.12l-.332-.052-.145.013m9.961 21.021l1.707-.265.278 1.853-1.879.29-.264-1.785.158-.093m-17.41 1.283l-.277.966-1.19-.317.317-1.204.384.106.767.45m19.46-13.031l1.164-.318.318 1.164-1.165.331-.317-1.177m-.093 1.759l1.733.212-.198 1.733-1.733-.199.198-1.746"/>
        <path fill="#c68a4e"
              d="M117.118 143.206l-.013-.093.225-.026-.212.119m14.79 19.42l-.463-1.058 1.058-.49.463 1.059-1.058.49"/>
    </g>
    <g stroke-width=".265">
        <path fill="#ecdcb8"
              d="M74.388 143.06l7.276-4.246h.013l3.73-2.183 15.876 9.26v18.521l-15.875 9.26-15.875-9.26v-18.52l4.564-2.66.013-.013h.013l.265-.159m22.49 12.436q.833-.873 1.441-1.919l.53-1.045q.396-.873.634-1.865l.212-.622v-2.302q0-.423-.212-.793-.225-.37-.582-.57h.013l-1.494-.872q-1.02.49-2.21.86l.013.013q-.621.158-1.19.37l-1.852-1.085h-.45l-.357-.807-.424.199-.079-.146-1.998-1.164q1.204-.648 2.646-1.005l-.013-.014.74-.238-5.277-3.082q-.37 1.045-.887 1.945l-.357.569-.397-.08-.238.027q-.172.04-.33.145l-1.496.886-.37.053.026.146-1.812 1.058-.357.675h-.807l-1.323.767-.463 1.138-.318.119h-1.375l-2.117 1.23q-.265.146-.41.424-.159.251-.159.555v.688q-1.019 1.19-1.733 2.778-.397.86-.701 1.813l-.225.78v5.821q1.177-1.045 2.66-1.68v1.931q0 .305.158.57.145.264.41.423l2.103 1.243q-1.296.728-2.302 1.813l8.017 4.67.265-.45.53-1.045.383-.98 1.415.834q.265.146.556.146l-.172.079.463 1.058 1.058-.49-.423-.978q1.415-.82 2.818-1.654l.82-1.257.185.027q-.542.569-1.005 1.23-.635.9-1.125 1.985-.397.86-.688 1.812l-.172.609 11.84-6.906h-.013q.357-.212.582-.582.212-.37.212-.78v-2.633q-1.257 1.032-2.924 1.76.106-.239.106-.504v-5.701m2.421 1.984l.199-1.733-1.733-.212-.199 1.747 1.733.198m-16.8-14.684l1.15-.185-.185-1.151-1.151.185.185 1.15m-7.29 4.67l.848-.687-.675-.86-.86.688.688.86m-3.003 2.103l.529-.251-.225-.543-.53.238.226.556m.198-2.302l.728.992 1.019-.74-.755-.993-.992.741"/>
        <path fill="#e5d5b2"
              d="M72.403 147.267l.993-.74.754.991-1.02.741-.727-.992m21.63-.516q.569-.212 1.19-.37l-.013-.013q1.191-.37 2.21-.86l1.495.873H98.9q.358.198.582.569.212.37.212.793v2.302l-.212.622q-.238.992-.635 1.865l-.529 1.045q-.608 1.046-1.442 1.919v-.172l-.555-.82.555-.874v-4.564q0-.304-.145-.555-.159-.278-.41-.424l-2.289-1.336m2.739 14.95q1.666-.728 2.923-1.76v2.632q0 .41-.212.78-.224.371-.582.583h.014l-11.84 6.905.171-.608q.292-.953.688-1.812.49-1.085 1.125-1.985.463-.661 1.005-1.23l.9.119 3.955-2.302.291-.172 1.112-.661q.251-.16.41-.424l.04-.066m-10.53 6.39l.422.979-1.058.49-.463-1.059.172-.08h.013q.305 0 .582-.145l.331-.185m-2.897-.648l-.384.979-.529 1.045-.265.45-8.016-4.67q1.005-1.085 2.301-1.813l.53.304.674.384 5.689 3.32m-9.565-8.175q-1.481.635-2.659 1.68v-5.82l.225-.781q.304-.953.701-1.813.715-1.587 1.733-2.778v7.276l.648 1.217-.648.794v.225m4.062-12.409l.317-.119-.053.119h-.264m7.884-4.934l.357-.57q.516-.899.887-1.944l5.278 3.082-.74.239.012.013q-1.442.357-2.645 1.005l-1.958-1.138-1.006-.595-.185-.092m5.226 3.135l.423-.199.357.807h-.423l-.357-.608m8.347 12.422l-1.733-.198.199-1.747 1.733.212-.199 1.733m-16.8-14.684l-.186-1.151 1.15-.186.186 1.151-1.15.186m-7.29 4.67l-.688-.86.86-.688.675.86-.847.688m-3.003 2.103l-.225-.556.53-.238.224.543-.53.251"/>
        <path fill="#e0d1af" d="M74.11 143.219l.278-.159-.265.159h-.013"/>
    </g>
    <g stroke-width=".265">
        <path fill="#bb6444"
              d="M57.547 143.153l-.146 1.402 1.39.132.145-1.389-1.39-.145m-7.593-.992l-.33.145-1.495.886-.37.053.026.146-1.217.714-.622-.582-.966 1.019.622.582h-.794l-1.323.767-.516 1.257h-1.64l-2.117 1.23q-.264.146-.41.424-.159.251-.159.555v.926l-.568-.132-.556 2.527 1.124.251v3.281l-.661-.609-1.64 1.773 1.772 1.64.913-.978.265.502-.649.794v2.156q0 .305.16.57.145.264.41.423l2.632 1.547.675.384 2.58 1.508-1.072.33.595 1.92 1.918-.61-.304-.978 3.387 1.984q.264.146.568.146.305 0 .583-.146l1.243-.728.106.305 1.177-.41-.172-.53.794-.476.82-1.257 1.085.146 2.183-1.27.595-.185-.04-.133 1.218-.714.29-.172.543-.317-.688.555.886 1.085 1.098-.886-.846-1.019.119-.08q.251-.158.41-.423.145-.264.145-.569v-5.159h.053l.172-1.482h.014l.105-.979-.344-.04v-4.47q0-.305-.145-.556-.159-.278-.41-.424l-2.884-1.68-.304-.966-.86.278-.093-.053h-.873l-.437-.754-3.955-2.302-1.006-.595q-.277-.172-.582-.172l-.238.027m.9-1.535l1.283-.569-.569-1.27-1.296.569.582 1.27m11.866 6.826l1.323.516.49-1.336-1.31-.503-.503 1.323m2.435 3.797l-1.416-.132-.132 1.402 1.389.132.159-1.402m.992-5.067v18.521l-15.875 9.26-15.875-9.26v-18.52l15.875-9.261 15.875 9.26m-2.104 18.283l.49-1.323-1.31-.503-.503 1.31 1.323.516m-7.276 4.63l.57-2.513-2.514-.57-.556 2.528 2.5.555m-5.199 1.6l-.225-1.388-1.376.225.212 1.376 1.39-.212m-14.619-22.463l-1.124-.807-.82 1.124 1.124.82.82-1.137m5.49-4.935l-1.389-.145-.145 1.402 1.389.132.145-1.389m-6.64 16.51l-.662 2.54 2.54.675.661-2.553-2.54-.662m5.239 6.602l.569 1.283 1.27-.569-.582-1.296-1.257.582"/>
        <path fill="#c26948"
              d="M57.547 143.153l1.389.145-.146 1.39-1.389-.133.146-1.402m-18.905 7.13v2.646l-1.124-.251.555-2.527.57.132m6.455 15.637l1.138.662.304.979-1.918.608-.595-1.918 1.071-.33m12.912-1.575l.555-.318.04.133-.595.185m4.71-16.894l.502-1.323 1.31.503-.49 1.336-1.323-.516m1.323 17.013l-1.323-.516.503-1.31 1.31.503-.49 1.323m-7.276 4.63l-2.5-.555.556-2.527 2.513.569-.569 2.513M42.44 143.298l-.145 1.39-1.39-.133.146-1.402 1.39.145"/>
        <path fill="#b55f40"
              d="M46.567 144.105l-.596.344-.357.675h-.013l-.622-.582.966-1.019.622.582m-7.925 12.105v1.111l.384.715-.913.979-1.773-1.64 1.64-1.774.662.609m13.375 11.628l1.111-.635.172.53-1.177.41-.106-.305m8.599-5.013l.45-.265.846 1.019-1.098.886-.886-1.085.688-.555m1.124-6.496v-.714l-.555-.82.555-.874v-.092l.344.04-.105.978h-.014l-.172 1.482h-.052m-3.44-9.63l-1.164-.689.86-.277.304.965m-7.448-6.072l-.582-1.27 1.296-.569.57 1.27-1.284.57m14.3 10.622l-.158 1.402-1.39-.132.133-1.402 1.416.132m-13.587 19.447l-1.389.212-.211-1.376 1.375-.225.225 1.389M36.95 148.233l-.82 1.138-1.125-.82.82-1.125 1.125.807m-1.15 11.575l2.54.662-.662 2.553-2.54-.675.661-2.54m5.239 6.602l1.257-.582.582 1.296-1.27.569-.57-1.283"/>
    </g>
    <g stroke-width=".265">
        <path fill="#e0d1af" d="M4.511 143.497h-.013l.278-.159-.265.159"/>
        <path fill="#a4afaf"
              d="M8.202 147.148h-1.27l-2.117 1.23q-.264.146-.41.424-.158.251-.158.555v4.128l-1.032 1.204 1.032.49v2.142l.119.212-1.032-.476-.98 1.15 1.562.728.74-.86.239.463-.648.794v2.156q0 .305.158.57.146.264.41.423l2.064 1.203 6.866 4.009 1.482.873q.211.12.463.146h.106q.304 0 .582-.146l.264-.145 2.739-1.601.145-.093.53-.794.343-.396 1.019.476.661-.767 1.826-1.072-.278.317 1.561.728.98-1.15-1.165-.543 1.786-1.045q.251-.16.41-.424l.066-.132.08-.437v-5.874l-.556-.82.556-.873v-4.564q0-.304-.146-.555-.159-.278-.41-.424l-2.342-1.362-1.256-.741.158-.185-2.368-1.085-1.68-.992-2.923-1.707-.252-.119-.33-.053q-.305 0-.57.172l-3.65 2.143-.358.675h-.807l-1.667-.767-1.534 1.799 1.482.701-.053.132-.437.159M0 146.182l15.875-9.26 15.875 9.26v18.521l-15.875 9.26L0 164.704v-18.52m23.376-2.488l-.979 1.151 1.561.728.979-1.151-1.561-.728m.675 2.408l1.56.728.98-1.151-1.561-.728-.98 1.15m-8.466-5.357l1.561.728.979-1.151-1.561-.728-.98 1.151m12.688 12.647l-.98 1.151 1.562.728.979-1.151-1.561-.728M10.874 166.45l-.979 1.151 1.561.728.98-1.151-1.562-.728m-3.122 1.442l.98-1.15-1.562-.728-.979 1.15 1.561.728"/>
        <path fill="#9ba6a6"
              d="M8.692 146.857l-1.482-.701 1.534-1.8 1.667.768-1.323.767-.396.966m-4.035 11.218l-.741.86-1.561-.727.979-1.151 1.032.476.29.542m18.72-14.38l1.561.728-.979 1.15-1.561-.727.979-1.15m-7.792-2.95l.979-1.152 1.56.728-.978 1.15-1.561-.727m-7.832 27.146l-1.56-.727.978-1.151 1.561.727-.979 1.151"/>
        <path fill="#a9b6b6"
              d="M20.981 145.005l2.368 1.085-.158.185-.543-.318h-.873l-.37-.648-.066-.106-.358-.198m4.022 18.52l1.164.543-.979 1.151-1.56-.728.277-.317 1.098-.648m-2.923 1.72l-.662.767-1.019-.476.053-.053.98.132.648-.37M4.247 155.178l-1.032-.49 1.032-1.203v1.693m19.804-9.075l.979-1.151 1.56.728-.978 1.15-1.561-.727m4.22 7.29l1.56.727-.978 1.15-1.561-.727.979-1.15m-17.397 13.056l1.561.728-.979 1.15-1.56-.727.978-1.15"/>
    </g>
    <g stroke-width=".265">
        <path fill="#27ae60"
              d="M159.808 45.522l-.066-.027-.08.027-.039.066-.264.833-.358-.145h-.092q-.04 0-.066.04v.012q-.027.04-.014.093l.252.807h1.283l.185-.476v-.119l-.066-.053h-.08l-.33.106-.225-1.098-.04-.067m-18.23-8.228v-.159q0-.304.16-.555.145-.278.41-.424l2.116-1.23h1.64l.516-1.257 1.323-.767h.807l.357-.675 3.652-2.143q.198-.132.423-.159l.146-.013q.304 0 .582.172l4.96 2.897.437.754h.873l4.141 2.421q.251.146.41.424.146.25.146.555v4.564l-.556.873.556.82v5.874q0 .305-.146.57-.159.264-.41.423l-5.358 3.135-1.085-.146-.82 1.257-3.148 1.839-.556.145-.212-1.045-.04-.066-.065-.026-.08.026-.04.066-.264.834h-.027l-10.279-6.02q-.264-.158-.41-.423-.159-.264-.159-.569V47.11l.649-.794-.649-1.217v-6.284l.358-.238.04-.04.013-.04-.014-.079-.08-.066-.317-.08-.079-.026.08-.198.238-.635v-.093l-.014-.013-.053-.053h-.092l-.08.04m2.7 3.043l-.08.026-.04.066-.264.834-.358-.146h-.092q-.04 0-.066.04v.013q-.027.04-.014.093l.252.807h1.283l.185-.477v-.119l-.066-.052h-.08l-.33.105-.225-1.098-.04-.066-.066-.026m8.321-9.499l-.04-.066-.079-.026-.08.04-.039.065-.211 1.085-.331-.106-.08.014-.066.052v.12l.186.476h1.283l.238-.82v-.093l-.066-.053h-.093l-.37.146-.252-.834m-4.035 3.334l-.013.013v.093l.331.82-.41.119-.066.053-.027.092.027.027.026.04.424.29h1.587l.384-.833.013-.013.013-.066-.026-.04-.014-.026-.066-.04-.436-.08-.106-.925-.027-.067-.066-.04h-.066l-.066.04-.516.755-.754-.265h-.092l-.053.053m-1.072 4.008l-.04.066-.264.834-.357-.146h-.093q-.04 0-.066.04v.013q-.027.04-.013.093l.251.807h1.283l.185-.476v-.12l-.066-.052h-.08l-.33.105-.225-1.098-.04-.066-.066-.026-.079.026m6.297-1.045l-.529-.754-.066-.04-.066-.013-.066.04-.027.066-.092.926-.45.093-.066.026-.013.027-.014.052v.067h.014l.383.833h1.588l.423-.278.04-.04.013-.04-.013-.078-.08-.067-.397-.105.318-.834v-.093l-.013-.013-.053-.053h-.093l-.74.278m1.547 11.06q-.04 0-.066.04v.013q-.026.04-.013.092l.251.807h1.283l.186-.476v-.119l-.066-.053h-.08l-.33.106-.225-1.098-.04-.066-.066-.027-.08.027-.04.066-.264.833-.357-.145h-.093m-3.307 3.624l-.066.04-.027.066-.092.926-.45.093-.066.026-.013.027-.014.053v.066h.014l.383.833h1.588l.423-.277.04-.04.013-.04-.013-.08-.08-.065-.396-.106.317-.834v-.092l-.013-.013-.053-.053h-.093l-.74.277-.53-.754-.066-.04-.066-.012"/>
        <path fill="url(#p)"
              d="M183.185 100.622v-.543l.317.08.08.066.013.079-.014.04-.04.04-.356.238m0-.768V99.1l.079-.04h.093l.052.053.014.014v.092l-.238.635"
              transform="translate(-41.606 -61.807)"/>
        <path fill="url(#q)"
              d="M185.883 102.143l.066.026.04.067.225 1.098.33-.106h.08l.066.053v.119l-.185.476h-1.283l-.252-.807q-.013-.053.014-.093v-.013q.026-.04.066-.04h.092l.358.146.264-.833.04-.067.08-.026"
              transform="translate(-41.606 -61.807)"/>
        <path fill="url(#r)"
              d="M194.204 92.644l.252.834.37-.146h.093l.066.053v.093l-.238.82h-1.283l-.186-.476v-.119l.067-.053.079-.013.33.105.212-1.084.04-.067.08-.04.079.027.04.066"
              transform="translate(-41.606 -61.807)"/>
        <path fill="url(#s)"
              d="M190.17 95.978l.052-.053h.093l.754.265.516-.754.066-.04h.066l.066.04.027.066.106.926.436.08.066.039.014.026.026.04-.013.066-.013.013-.384.834h-1.587l-.424-.291-.026-.04-.027-.026.027-.093.066-.053.41-.119-.33-.82v-.093l.012-.013"
              transform="translate(-41.606 -61.807)"/>
        <path fill="url(#t)"
              d="M189.098 99.987l.08-.027.066.027.04.066.224 1.098.33-.106h.08l.066.053v.119l-.185.476h-1.283l-.251-.807q-.014-.053.013-.092v-.014q.026-.04.066-.04h.093l.357.146.264-.833.04-.066"
              transform="translate(-41.606 -61.807)"/>
        <path fill="url(#u)"
              d="M195.395 98.941l.74-.277h.094l.052.053.014.013v.092l-.318.834.397.106.08.066.013.08-.014.039-.04.04-.423.277h-1.587l-.384-.833h-.013v-.066l.013-.053.013-.027.067-.026.45-.093.092-.926.026-.066.067-.04.066.014.066.04.529.753"
              transform="translate(-41.606 -61.807)"/>
        <path fill="url(#v)"
              d="M196.943 110.001h.093l.357.146.264-.834.04-.066.08-.026.065.026.04.066.225 1.098.33-.106h.08l.066.053v.119l-.185.477h-1.283l-.251-.807q-.014-.053.013-.093v-.013q.026-.04.066-.04"
              transform="translate(-41.606 -61.807)"/>
        <path fill="url(#w)"
              d="M193.636 113.626l.066.013.066.04.53.754.74-.278h.093l.052.053.014.013v.093l-.318.833.397.106.08.066.013.08-.014.04-.04.039-.423.278h-1.587l-.384-.834h-.013v-.066l.013-.053.013-.026.067-.027.45-.092.092-.926.026-.067.067-.04"
              transform="translate(-41.606 -61.807)"/>
        <path fill="url(#x)"
              d="M194.76 118.296h-.026q-.305 0-.57-.146l-.132-.066h.027l.265-.833.04-.066.079-.027.066.027.04.066.211 1.045"
              transform="translate(-41.606 -61.807)"/>
        <path fill="url(#y)"
              d="M201.414 107.329l.04.066.225 1.098.33-.106h.08l.066.053v.119l-.185.476h-1.283l-.251-.807q-.014-.053.013-.092v-.014q.026-.04.066-.04h.092l.358.146.264-.833.04-.066.08-.027.065.027"
              transform="translate(-41.606 -61.807)"/>
    </g>
    <g stroke-width=".265">
        <path fill="#bb8044"
              d="M118.719 29.938l-.12 1.005 1.892.212.053-.477 3.956 2.302.436.754h.873l4.141 2.421q.251.146.41.424.146.251.146.555v4.564l-.556.873.556.82v5.874q0 .305-.146.57-.159.264-.41.423l-1.111.661-.318.04.027.132-3.956 2.302-1.084-.146-.82 1.257-3.15 1.839-.475.146h-.106q-.305 0-.57-.146l-7.103-4.154.053-.185-.728-.199-2.633-1.547q-.264-.16-.41-.424-.158-.264-.158-.569V47.11l.648-.794-.648-1.217v-7.964q0-.304.158-.555.146-.278.41-.424l2.117-1.23h1.64l.516-1.257 1.323-.767h.807l.358-.675 1.812-1.058.159 1.005 1.15-.185-.185-1.15-.78.131 1.495-.886.33-.145m11.166 10.61l-.847-.12-.106.834.834.106.119-.82m-21.286-4.565l.728.993 1.018-.741-.754-.993-.992.741m3.638.635l-.86.688.688.86.847-.688-.675-.86m-3.69 2.064l.793 1.826 1.812-.794-.807-1.826-1.799.794m1.786 11.51l.265-1.072-1.072-.251-.264 1.058 1.071.264m2.038-1.322l-.94 1.772 1.733.926.953-1.76-1.746-.938m15.663-1.442h-1.217l.013 1.203h1.204v-1.203m-.767-1.958l-.781-.331-.317.78.767.318.33-.767m-12.871 7.448l.502.264.305-.516-.53-.264-.277.516m11.297-3.387l-1.627-.648-.648 1.627 1.627.635.648-1.614"/>
        <path fill="#aa753e"
              d="M125.69 49.53l-.648 1.614-1.627-.635.648-1.627 1.627.648m-5.146-18.852l-.053.477-1.892-.212.12-1.005.238-.027q.304 0 .582.172l1.005.595m-9.935 21.127l.728.199-.053.185-.675-.384m17.939-.714l-.027-.132.318-.04-.291.172m-16.312-14.473l.675.86-.847.688-.688-.86.86-.688m-3.638-.635l.992-.74.754.992-1.018.74-.728-.992m1.733 14.208l-1.071-.264.264-1.059 1.072.252-.265 1.071m17.7-2.764v1.203h-1.203l-.013-1.203h1.217m-13.64 5.49l.278-.516.53.264-.305.516-.502-.264"/>
        <path fill="#c68a4e"
              d="M116.893 30.97l.78-.133.186 1.151-1.151.185-.159-1.005-.027-.146.37-.053m12.992 9.578l-.12.82-.833-.105.106-.834.847.12m-21.339-1.866l1.8-.794.806 1.826-1.812.794-.794-1.826m3.823 10.187l1.747.939-.953 1.76-1.733-.927.94-1.772m14.896-3.4l-.331.767-.767-.318.317-.78.78.33"/>
    </g>
    <g stroke-width=".265">
        <path fill="#e5d5b2"
              d="M77.404 34.766q.529-.198 1.085-.33l-.014-.014q3.308-1.032 5.305-3.082l.358-.397.41-.503.344-.476q.119.04.251.12l2.924 1.706q-2.104 1.124-3.52 3.148-1.124 1.614-1.799 3.784-.25.992-.635 1.865l-.529 1.045q-2.063 3.585-6.826 5.054l.013.013q-.926.225-1.76.582v-.172l.649-.794-.648-1.217v-7.382l.33-.357q1.509-1.6 3.625-2.434l.437-.159m13.48-1.032l.106.238-1.058.49-.463-1.058.701-.318.37.648h.344m2.329 1.059l2.341 1.362q.252.146.41.424.146.25.146.555v4.564l-.556.873.556.82v.08q-1.76 1.879-4.577 2.924l-.874.29.014.014-.225.066q-1.416.37-2.593 1.045l-.463.278-.291.185-.291.212q-1.072.794-1.918 1.878l-.344.463q-.41.583-.741 1.23-.41.755-.728 1.615l-.33.952-.239.847-6.866-4.009q1.244-.714 2.739-1.098l.106-.026-.014-.013q3.996-1.244 6.073-3.982l.688-1.032Q85.99 44 86.4 42.4q.29-.953.688-1.813 1.958-4.313 6.125-5.794m2.818 14.909l-.067.132q-.158.265-.41.424l-5.358 3.135-.978-.132q1.997-2.117 5.053-2.898l.106-.026-.013-.013 1.667-.622m-7.21 4.008l-.53.794-.145.093.675-.887m-3.413 2.487l-.265.146-.476.146h-.212l.9-.424.053.132m-1.165-15.253v1.204H83.04l-.014-1.204h1.217m4.578-5.702l.846.12-.119.82-.833-.106.106-.834m-6.681 8.771l1.879-.29.277 1.851-1.878.291-.278-1.852m3.294 8.652l-.304.516-.503-.264.278-.516.529.264m5.2-3.135l-.65 1.614-1.626-.635.648-1.627 1.627.648m-10.967-2.302l-.952 1.76-1.733-.926.939-1.773 1.746.94m-3.81.978l1.072.251-.265 1.072-1.071-.265.264-1.058m17.013-.754l-.33.767-.768-.317.317-.78.78.33m-1.11 1.296h1.217v1.204H91.77l-.013-1.204"/>
        <path fill="#ecdcb8"
              d="M84.892 29.964l-.344.476-.41.503-.358.397q-1.997 2.05-5.305 3.082l.014.013q-.556.133-1.085.331l.45-1.098 1.323-.767h.807l.357-.675 3.65-2.143q.266-.172.57-.172l.33.053m-7.924 4.961q-2.116.833-3.625 2.434l-.33.357v-.582q0-.304.158-.555.146-.278.41-.424l2.117-1.23h1.27m-3.955 12.356q.833-.357 1.76-.582l-.014-.013q4.763-1.469 6.826-5.054l.53-1.045q.383-.873.634-1.865.675-2.17 1.8-3.784 1.415-2.024 3.519-3.148l2.037 1.19.066.106-.701.318.463 1.058 1.058-.49-.106-.238h.53l1.799 1.059q-4.168 1.481-6.125 5.794-.397.86-.688 1.812-.41 1.601-1.165 2.91l-.687 1.033q-2.077 2.738-6.073 3.982l.014.013-.106.026q-1.495.384-2.739 1.098l-2.063-1.203q-.265-.16-.41-.424-.16-.264-.16-.569v-1.984m23.099-3.81v5.794l-.08.437-1.666.622.013.013-.106.026q-3.056.781-5.054 2.898l-.396.45-.675.886-2.739 1.6-.053-.132-.9.424-.462-.146-1.482-.873.238-.847.331-.952q.318-.86.728-1.614.33-.648.74-1.23l.344-.464q.847-1.084 1.919-1.878l.29-.212.292-.185.463-.278q1.177-.674 2.593-1.045l.225-.066-.014-.013.874-.291q2.817-1.045 4.577-2.924m-7.29-8.228l-.105.833.833.106.12-.82-.847-.12m-4.578 5.702h-1.217l.013 1.204h1.204v-1.204m-8.387 7.263l-.265 1.058 1.072.265.265-1.072-1.072-.25m3.81-.98l-1.746-.94-.94 1.774 1.733.926.953-1.76m10.967 2.302l-1.627-.648-.648 1.627 1.627.635.648-1.614m-5.2 3.135l-.528-.264-.278.516.503.264.304-.516m-3.294-8.652l.278 1.853 1.878-.292-.278-1.852-1.878.291m10.729 3.44l-.78-.33-.318.78.767.317.33-.767m-1.11 1.296l.013 1.204h1.203V48.75h-1.217"/>
        <path fill="#e0d1af" d="M73.263 31.274l.278-.159-.265.159h-.013"/>
    </g>
    <g stroke-width=".265">
        <path fill="#bb6444"
              d="M46.5 31.909l3.096-1.826q.265-.172.569-.172.304 0 .582.172l4.961 2.897.437.754h.873l.053.027-1.098.344.608 1.918 1.918-.609-.317-.992 2.976 1.733q.252.146.41.424.146.251.146.555v4.472l-2.196-.252-.291 2.461 2.46.278.027-.225v5.397q0 .305-.146.57-.158.264-.41.423l-.172.105-.079-.105-.635.516-1.8 1.058-.581-1.839-1.918.609.608 1.918 1.521-.463-2.301 1.336-1.085-.146-.82 1.257-.86.503-.238-.701-1.191.41.33.94-1.19.687-.476.146h-.106q-.304 0-.569-.146l-3.48-2.037-.29-.887-.794.252-5.847-3.413q-.265-.16-.41-.424-.16-.264-.16-.569V47.11l.65-.794-.305-.569.688-.754-1.032-.939v-3.347l1.296.291.57-2.513-1.866-.424v-.926q0-.304.159-.555.145-.278.41-.424l2.116-1.23h1.64l.517-1.257 1.323-.767h.727l.384.37.966-1.018-.357-.344m1.428 2.487l-1.323-.503-.502 1.323 1.336.516.49-1.336m-6.179 5.463l1.27-.568-.569-1.297-1.27.582.57 1.283m3.439 4.234l.172-1.482h.013l.106-.979-2.474-.278-.278 2.461 2.46.278m2.276 1.362l.45 1.958 1.958-.463-.463-1.958h-.013l-1.932.463m-3.254-9.723l1.098-.886-.9-1.085-1.084.886.886 1.085m-.291 1.786l.595 1.905 1.918-.595-.608-1.919-1.905.609m-1.588 10.04l-1.389-.131-.145 1.389 1.389.132.145-1.39m1.879 4.67l1.098-.886-.9-1.084-1.084.886.886 1.085m3.228 0l.49-1.323-1.324-.503-.502 1.31 1.336.516m9.538-13.745l-2.514-.57-.555 2.528 2.5.555.569-2.513m-8.281-2.011l1.389-.159-.16-1.402-1.388.172.159 1.389m3.32 2.923L53.194 39l-.396-1.191-1.191.41.41 1.177m6.932-1.402l-1.27.582.569 1.283 1.283-.568-.582-1.297m2.408 7.62l-1.138-.82-.82 1.138 1.15.82.808-1.138m-6.84 1.164l1.628-1.786-1.773-1.627-1.64 1.773 1.785 1.64m4.313.78l-1.389-.131-.145 1.389 1.389.132.145-1.39M50.747 44.9l1.283-.582-.569-1.27-1.296.569.582 1.283m3.32 5.887l.662-2.553-2.54-.662-.648 2.54 2.527.675"/>
        <path fill="#b55f40"
              d="M54.068 50.787l-2.527-.675.648-2.54 2.54.662-.661 2.553M45.508 32.9h.08l.357-.675.556-.317.357.344-.966 1.018-.384-.37m11.563.86l1.11.661.318.992-1.918.609-.608-1.918 1.098-.344m4.643 7.845v.092l-.556.873.556.82v.477l-.026.225-2.461-.278.291-2.46 2.196.25m-.728 8.758h-.013l-.7.41.634-.515.08.105m-7.951 4.644l-1.098.648-.33-.94 1.19-.41.238.702m-14.076-9.26l-.344-.649v-1.045l1.032.94-.688.753m8.97-11.35l-.49 1.336-1.336-.516.502-1.323 1.323.503m-4.008 3.122l1.905-.609.608 1.919-1.918.595-.595-1.905m.291-1.786l-.886-1.085 1.084-.886.9 1.085-1.098.886m3.254 9.723l1.932-.463h.013l.463 1.958-1.958.463-.45-1.958m-2.275-1.362l-2.46-.278.277-2.46 2.474.277-.106.98h-.013l-.172 1.48m-.979 8.137l-.886-1.085 1.084-.886.9 1.084-1.098.887m7.805-12.833l-.41-1.177 1.19-.41.398 1.19-1.178.397m-3.32-2.923l-.16-1.39 1.39-.171.159 1.402-1.39.159m8.282 2.01l-.569 2.514-2.5-.555.556-2.527 2.513.569m1.852 9.075l-.145 1.389-1.39-.132.146-1.39 1.39.133m-4.314-.78l-1.785-1.641 1.64-1.773 1.773 1.627-1.628 1.786"/>
        <path fill="#c26948"
              d="M58.473 51.832l.026.092-.396.133-1.522.463-.608-1.918 1.918-.609.582 1.839m-12.356 2.474l-1.085-.635.794-.252.29.887m-7.5-13.6V38.06l1.865.424-.569 2.513-1.296-.29m3.135-.848l-.569-1.283 1.27-.582.57 1.297-1.27.568m.581 7.7l-.145 1.389-1.39-.132.146-1.39 1.39.133m5.106 4.67l-1.336-.516.502-1.31 1.323.503-.49 1.323m11.51-14.235l.582 1.297-1.283.568-.569-1.283 1.27-.582m2.408 7.62l-.807 1.138-1.151-.82.82-1.138 1.138.82m-10.61-.714l-.582-1.283 1.296-.57.57 1.27-1.284.583"/>
    </g>
    <g stroke-width=".265">
        <path fill="#a4afaf"
              d="M4.22 41.156v-4.022q0-.304.159-.555.145-.278.41-.424l2.117-1.23h1.64l.12-.265.885.41 1.548-1.812-.74-.344.026-.013h.807l.357-.675 3.651-2.143q.265-.172.57-.172.303 0 .581.172l4.802 2.805-.37-.172-1.535 1.799 2.448 1.15 1.415-1.64 3.652 2.13q.251.146.41.424.145.251.145.555v4.564l-.555.873.555.82v5.874q0 .305-.145.57-.159.264-.41.423l-1.8 1.058-.463-.212-.807.953-1.825 1.071.423-.502-1.56-.728-.98 1.15.543.252-.794 1.204-3.149 1.839-.476.146h-.106q-.304 0-.569-.146L4.79 50.258q-.265-.16-.41-.424-.159-.264-.159-.569V47.11l.648-.794-.277-.529.198-.238-.437-.198-.132-.252v-2.116l1.336.621 1.548-1.812-2.46-1.138-.424.503m14.513.714l-1.535 1.8 2.447 1.15 1.548-1.812-2.46-1.138m-.966.397l.979-1.15-1.561-.728-.98 1.15 1.562.728m6.178.04l1.56.727.98-1.15-1.561-.728-.98 1.15M20.4 50.364l-.026.027 2.447 1.15 1.548-1.812-2.46-1.137-1.509 1.772m-9.048 3.414l.979-1.151-1.561-.728-.98 1.151 1.562.728m-2.064-9.605l-2.46-1.138-1.535 1.8 2.447 1.15 1.548-1.812m.344-1.905l.979-1.15-1.561-.728-.98 1.15 1.562.728"/>
        <path fill="#a9b6b6"
              d="M9.63 42.267l-1.56-.727.979-1.151 1.56.727-.978 1.151m-5.41-1.111l.422-.503 2.461 1.138-1.548 1.812-1.336-.621v-1.826M20.294 53.3l-.543-.251.98-1.151 1.56.728-.423.502-.463.265-1.085-.146-.026.053m3.4-1.243l.806-.953.463.212-1.27.74m-.582-18.03l-1.415 1.64-2.448-1.151 1.535-1.8.37.173.16.092.436.754h.873l.49.291M9.286 44.172l-1.548 1.813-2.447-1.151 1.534-1.8 2.46 1.138"/>
        <path fill="#9ba6a6"
              d="M4.352 45.35l.437.198-.198.238-.239-.436m6.006-12.436l.741.344-1.548 1.812-.886-.41.397-.992 1.296-.754m13.587 9.393l.979-1.151 1.56.728-.978 1.15-1.561-.727m-6.178-.04l-1.561-.727.979-1.151 1.56.727-.978 1.151m.966-.397l2.46 1.138-1.548 1.812-2.447-1.15 1.535-1.8m1.666 8.493l1.509-1.772 2.46 1.137-1.548 1.813-2.447-1.151.026-.027m-9.048 3.413L9.79 53.05l.979-1.151 1.56.728-.978 1.15"/>
    </g>
    <g stroke-width=".265">
        <path fill="#27ae60"
              d="M156.805 167.825l-.067-.013-.066.04-.026.066-.093.926-.45.092-.066.027-.013.026-.013.053v.066h.013l.384.834h1.587l.424-.278.04-.04.013-.04-.014-.079-.08-.066-.396-.106.318-.833v-.093l-.014-.013-.053-.053h-.092l-.741.278-.53-.754-.065-.04m-3.413-25.81l-.331.146-1.495.886-.37.053.026.145-1.812 1.059-.357.674h-.807l-1.323.768-.516 1.256h-1.64l-2.117 1.23q-.265.146-.41.424-.16.251-.16.556v.198l-.581.212-.53-.754q-.026-.04-.066-.04l-.066-.013-.066.04-.026.066-.093.926-.45.092-.066.027-.013.026-.013.053v.066h.013l.384.834h1.574v6.23l.648 1.218-.648.794v2.156q0 .304.159.569.145.264.41.423l2.632 1.548.675.384 4.974 2.91 1.892 1.111-.146-.066h-.092q-.04 0-.066.04v.013q-.027.04-.013.093l.25.807h1.284l.185-.477v-.119l-.066-.053h-.08l-.33.106-.013-.066.476-.146 3.149-1.838.82-1.257 1.085.145 3.955-2.302.291-.172 1.112-.661q.25-.159.41-.423.145-.265.145-.57v-5.873l-.555-.82.555-.873v-4.564q0-.305-.145-.556-.16-.278-.41-.423l-4.141-2.421h-.873l-.437-.754-3.955-2.302-1.006-.595q-.278-.172-.582-.172l-.238.026m-12.025 20.77l-.027.066-.092.926-.45.093-.066.026-.014.027-.013.052v.067h.013l.384.833h1.588l.423-.278.04-.04.013-.04-.013-.079-.08-.066-.397-.105.318-.834v-.093l-.013-.013-.053-.053h-.093l-.74.278-.53-.754q-.026-.04-.066-.04l-.066-.013-.066.04m-3.532-16.748l15.875-9.26 15.875 9.26v18.52l-15.875 9.261-15.875-9.26v-18.521m13.096 21.14h-.092l-.741.278-.53-.754-.065-.04-.066-.013-.067.04-.026.066-.093.926-.45.092-.066.027-.013.026-.013.053v.066h.013l.384.834h1.587l.424-.278.04-.04.013-.04-.014-.079-.079-.066-.397-.106.318-.833v-.093l-.014-.013-.052-.053m10.318-22.397q-.026.04-.013.093l.251.807h1.284l.185-.477v-.119l-.066-.053h-.08l-.33.106-.225-1.098-.04-.066-.066-.027-.08.027-.04.066-.264.834-.357-.146h-.092q-.04 0-.067.04v.013m4.168 17.86q-.04 0-.066.039v.013q-.027.04-.014.093l.252.807h1.283l.185-.476v-.12l-.066-.052h-.08l-.33.105-.225-1.098-.04-.066-.066-.026-.08.026-.039.066-.265.834-.357-.146h-.092"/>
        <path fill="url(#z)"
              d="M-435.795 59.69v1.535h-1.574l-.384-.833h-.013v-.067l.013-.052.013-.027.066-.026.45-.093.093-.926.026-.066.066-.04.067.013q.04 0 .066.04l.529.754.582-.212"
              transform="translate(577.875 89.72)"/>
        <path fill="url(#A)"
              d="M-436.51 73.065l.067-.04.066.014q.04 0 .066.04l.53.753.74-.277h.093l.053.053.013.013v.092l-.318.834.397.106.08.066.013.08-.013.039-.04.04-.423.277h-1.588l-.384-.833h-.013v-.066l.013-.053.014-.027.066-.026.45-.093.092-.926.027-.066"
              transform="translate(577.875 89.72)"/>
        <path fill="url(#B)"
              d="M-426.945 77.457l.053.053.014.013v.093l-.318.833.397.106.08.066.012.08-.013.04-.04.04-.423.277h-1.587l-.384-.833h-.013v-.067l.013-.053.013-.026.066-.026.45-.093.093-.926.026-.066.067-.04.066.013.066.04.529.754.74-.278h.093"
              transform="translate(577.875 89.72)"/>
        <path fill="url(#C)"
              d="M-425.053 78.569l.238.132q.265.145.57.145h.105l.013.066.33-.105h.08l.066.053v.119l-.185.476h-1.283l-.251-.807q-.014-.053.013-.093v-.013q.026-.04.066-.04h.093l.145.067"
              transform="translate(577.875 89.72)"/>
        <path fill="url(#D)"
              d="M-416.626 55.06v-.013q.027-.04.066-.04h.093l.357.146.265-.834.04-.066.079-.026.066.026.04.066.224 1.098.331-.105h.08l.066.053v.119l-.186.476h-1.283l-.251-.807q-.013-.053.013-.093"
              transform="translate(577.875 89.72)"/>
        <path fill="url(#E)"
              d="M-412.459 72.92h.093l.357.145.265-.833.04-.066.079-.027.066.027.04.066.225 1.098.33-.106h.08l.066.053v.119l-.185.476h-1.284l-.251-.807q-.013-.053.013-.092v-.014q.027-.04.066-.04"
              transform="translate(577.875 89.72)"/>
        <path fill="url(#F)"
              d="M-421.07 78.105l.065.04.53.754.74-.278h.093l.053.053.013.014v.092l-.318.834.397.105.08.067.013.079-.013.04-.04.04-.423.277h-1.588l-.383-.833h-.014v-.066l.014-.053.013-.027.066-.026.45-.093.092-.926.027-.066.066-.04.066.013"
              transform="translate(577.875 89.72)"/>
    </g>
</svg>