<svg xmlns="http://www.w3.org/2000/svg" width="87.3" height="100.45" viewBox="0 0 23.098 26.577" version="1.1">
    <g stroke-width=".265">
        <path fill="#bb8044"
              d="M11.31.026l-.118 1.006 1.892.212.053-.477 3.955 2.302.437.754h.873l4.14 2.421q.252.146.41.424.146.25.146.555v4.564l-.556.873.556.82v5.874q0 .305-.145.57-.16.264-.41.422l-1.112.662-.317.04.026.132-3.955 2.302-1.085-.146-.82 1.257-3.149 1.839-.476.145h-.106q-.304 0-.569-.145l-7.104-4.154.053-.185-.728-.199L.57 20.346q-.265-.158-.41-.423Q0 19.66 0 19.354v-2.156l.648-.794L0 15.187V7.223q0-.304.159-.555.145-.278.41-.424l2.117-1.23h1.64l.516-1.257 1.323-.767h.807l.357-.675L9.14 1.257l.16 1.005 1.15-.185-.185-1.15-.78.131L10.98.172l.33-.146m11.166 10.61l-.846-.119-.106.834.833.105.12-.82M1.19 6.072l.727.992 1.019-.74-.754-.993-.992.741m3.638.635l-.86.688.688.86.846-.688-.674-.86M1.138 8.771l.793 1.826 1.813-.794-.807-1.826-1.8.794m1.787 11.51l.264-1.072-1.071-.252-.265 1.059 1.072.264m2.037-1.323l-.94 1.773 1.734.926.952-1.76-1.746-.939m15.663-1.442h-1.217l.013 1.204h1.204v-1.204m-.767-1.957l-.78-.331-.318.78.767.318.33-.767M6.986 23.006l.503.264.304-.516-.53-.264-.277.516m11.298-3.387l-1.628-.648-.648 1.627 1.627.635.649-1.614"/>
        <path fill="#aa753e"
              d="M18.283 19.619l-.649 1.614-1.627-.635.649-1.627 1.627.648M13.137.767l-.053.477-1.892-.212.119-1.006.238-.026q.304 0 .582.172l1.006.595M3.2 21.894l.728.199-.053.185-.675-.384m17.94-.714l-.027-.132.317-.04-.29.172M4.828 6.707l.674.86-.846.688-.688-.86.86-.688M1.19 6.072l.992-.74.754.992-1.019.74-.727-.992M2.924 20.28l-1.072-.264.265-1.059 1.071.252-.264 1.071m17.7-2.765v1.204H19.42l-.013-1.204h1.217m-13.639 5.49l.278-.515.529.264-.304.516-.503-.264"/>
        <path fill="#c68a4e"
              d="M9.485 1.058l.78-.132.186 1.151-1.15.185-.16-1.005-.026-.146.37-.053m12.991 9.578l-.119.82-.833-.105.106-.834.846.12M1.138 8.77l1.799-.794.807 1.826-1.813.794-.793-1.826M4.96 18.957l1.746.94-.952 1.76-1.733-.927.939-1.773m14.896-3.4l-.33.768-.768-.318.317-.78.78.33"/>
    </g>
</svg>