<svg xmlns="http://www.w3.org/2000/svg" width="120" height="140" viewBox="0 0 31.75 37.042" version="1.1">
    <g stroke-width=".265">
        <path fill="#bb8044"
              d="M3.109 14.367l.225.555.529-.25-.225-.543-.53.238m3.136-2.077l1.019-.74-.754-.993-.992.74.727.993m1.826 2.738l-.807-1.825-1.8.793.794 1.826 1.813-.794m7.673-10.636l-.225 1.865 1.892.212.211-1.865-1.878-.212m-5.914 8.4l-.674-.86-.86.689.688.86.846-.688m13.573 7.66l-.317.78.767.317.33-.767-.78-.33m-8.625-13.15l-.185-1.151-1.151.185.185 1.15 1.151-.185M8.255 27.318l-1.204-.344-.317 1.204 1.19.318.331-1.178m-1.812-3.135l-.265 1.058 1.072.265.264-1.072-1.071-.251m13.89 1.64l1.627.635.649-1.614-1.628-.648-.648 1.627m3.4-3.082l.013 1.204h1.204V22.74h-1.217M8.348 25.956l1.733.926.952-1.76-1.746-.94-.94 1.774m2.964 2.275l.503.265.304-.516-.53-.265-.277.516M0 27.781V9.261L15.875 0 31.75 9.26v18.521l-15.875 9.26L0 27.782M27.662 14.5l.318 1.178 1.164-.331-.318-1.164-1.164.317m-.86 1.363l-.846-.12-.106.834.833.106.12-.82m.767.397l-.199 1.746 1.733.198.199-1.733-1.733-.211m.674 9.59l1.059-.489-.463-1.058-1.059.49.463 1.058m-2.804.423l.277 1.852 1.879-.29-.278-1.853-1.878.291"/>
        <path fill="#aa753e"
              d="M25.44 26.273l1.878-.29.278 1.851-1.878.291-.278-1.852M6.244 12.29l-.727-.992.992-.741.754.992-1.019.74M3.11 14.368l.529-.238.225.542-.53.251-.224-.555m6.72-1.574l-.846.688-.688-.86.86-.688.674.86m5.914-8.4l1.878.21-.211 1.866-1.892-.212.225-1.865m7.99 18.349h1.217v1.204h-1.204l-.013-1.204m-3.4 3.082l.649-1.627 1.627.648-.649 1.614-1.627-.635m-13.89-1.64l1.071.251-.264 1.072-1.072-.265.265-1.058m1.812 3.135l-.33 1.178-1.191-.318.317-1.204 1.204.344m3.056.913l.278-.516.529.265-.304.516-.503-.265m16.351-13.732l1.164-.317.318 1.164-1.164.33-.318-1.177m-.092 1.76l1.733.211-.199 1.733-1.733-.198.199-1.746"/>
        <path fill="#c68a4e"
              d="M8.07 15.028l-1.813.794-.793-1.826 1.799-.793.807 1.825m6.707-7.726l-1.15.186-.186-1.151 1.15-.185.186 1.15m8.625 13.15l.78.331-.33.767-.767-.317.317-.78M8.348 25.955l.939-1.773 1.746.94-.952 1.759-1.733-.926m18.454-10.094l-.119.82-.833-.106.106-.833.846.119m1.442 9.988l-.463-1.059 1.059-.489.463 1.058-1.059.49"/>
    </g>
</svg>