<svg xmlns="http://www.w3.org/2000/svg" width="120" height="105.05" viewBox="0 0 31.75 27.794" version="1.1">
    <g stroke-width=".265">
        <path fill="#fff" fill-opacity=".2"
              d="M1.19 14.367l-.039-.49 14.79 5.411 14.857-3.135-.027.397-14.896 3.466-14.684-5.65"/>
        <path fill="#9a6937"
              d="M31.75 18.534l-.49-.992-.489-.992.027-.397.939-16.14h.013v18.521m-31.75 0V.014L.027 0 1.15 13.877l.04.49-.503 1.773L0 18.534"/>
        <path fill="#cd8c4a" d="M1.19 14.367l14.685 5.649v4.828L.688 16.14l.503-1.773"/>
        <path fill="#c48646" d="M0 18.534l.688-2.394 15.187 8.704v2.95L0 18.534"/>
        <path fill="#af783f" d="M15.875 20.016l14.896-3.466.49.992-15.386 7.302v-4.828"/>
        <path fill="#a3703a" d="M31.75 18.534l-15.875 9.26v-2.95l15.386-7.302.489.992"/>
    </g>
</svg>