<svg xmlns="http://www.w3.org/2000/svg" width="120" height="140" viewBox="0 0 31.75 37.042" version="1.1">
    <g stroke-width=".265">
        <path fill="#e0d1af" d="M4.511 6.575h-.013l.278-.159-.265.159"/>
        <path fill="#bb8044"
              d="M3.638 14.129l-.53.238.226.556.529-.252-.225-.542m4.564-3.903h-1.27l-2.117 1.23q-.264.146-.41.424-.158.251-.158.555V20.4l.648 1.217-.648.794v2.157q0 .304.158.568.146.265.41.424l2.064 1.204.556.317-.384-.106-.317 1.204 1.19.318.278-.966 5.543 3.241 1.482.873.463.146h.106q.304 0 .582-.146l.264-.145 2.739-1.601.145-.093.53-.793.396-.45.98.132 4.02-2.355.265 1.786 1.879-.29-.278-1.853-1.706.265 1.177-.688q.251-.159.41-.424l.066-.132.08-.436v-5.875l-.556-.82.556-.873v-4.564q0-.304-.146-.555-.159-.278-.41-.424l-2.342-1.362-1.799-1.058h-.873l-.37-.649-.066-.106-2.038-1.19-1.838-1.072.158-1.415-1.878-.212-.093.834q-.225.026-.423.158l-1.561.926-.225.027.013.092-1.878 1.098-.358.675h-.807l-1.323.767-.45 1.098-.436.16M0 9.26L15.875 0 31.75 9.26v18.521l-15.875 9.26L0 27.782V9.261m27.57 6.998l-.199 1.746 1.733.198.199-1.733-1.733-.211m.092-1.76l.318 1.178 1.164-.331-.318-1.164-1.164.317m.582 11.35l1.059-.489-.463-1.058-1.059.49.463 1.058"/>
        <path fill="#aa753e"
              d="M3.638 14.129l.225.542-.53.252-.224-.556.529-.238M15.65 5.226l.093-.834 1.878.212-.159 1.415-1.084-.635q-.133-.08-.252-.119l-.33-.053-.146.014m9.962 21.02l1.706-.264.278 1.852-1.879.291-.264-1.786.159-.092M8.202 27.53l-.278.966-1.19-.318.317-1.204.384.106.767.45m19.46-13.03l1.164-.318.318 1.164-1.164.33-.318-1.177m-.092 1.76l1.733.211-.199 1.733-1.733-.198.199-1.746"/>
        <path fill="#c68a4e"
              d="M13.454 6.43l-.013-.093.225-.027-.212.12m14.79 19.42l-.463-1.059 1.059-.489.463 1.058-1.059.49"/>
    </g>
</svg>