<svg xmlns="http://www.w3.org/2000/svg" width="120" height="140" viewBox="0 0 31.75 37.042" version="1.1">
    <defs>
        <linearGradient id="a" x1="-5935" x2="6764" gradientTransform="matrix(.25 0 0 .27 -543 47)" y1="43" y2="43">
            <stop offset="0" stop-color="#27AE60"/>
            <stop offset="1" stop-color="#30C26D"/>
        </linearGradient>
        <linearGradient id="b" x1="-6722" x2="7467" gradientTransform="matrix(.28 0 0 .24 -543 47)" y1="105" y2="105">
            <stop offset="0" stop-color="#27AE60"/>
            <stop offset="1" stop-color="#30C26D"/>
        </linearGradient>
        <linearGradient id="c" x1="-6693" x2="7496" gradientTransform="matrix(.28 0 0 .24 -543 47)" y1="121" y2="121">
            <stop offset="0" stop-color="#27AE60"/>
            <stop offset="1" stop-color="#30C26D"/>
        </linearGradient>
        <linearGradient id="d" x1="-3640" x2="4302" gradientTransform="matrix(.35 0 0 .19 -543 47)" y1="159" y2="159">
            <stop offset="0" stop-color="#27AE60"/>
            <stop offset="1" stop-color="#30C26D"/>
        </linearGradient>
        <linearGradient id="e" x1="-4877" x2="5836" gradientTransform="matrix(.26 0 0 .26 -543 47)" y1="27" y2="27">
            <stop offset="0" stop-color="#27AE60"/>
            <stop offset="1" stop-color="#30C26D"/>
        </linearGradient>
        <linearGradient id="f" x1="-4862" x2="5852" gradientTransform="matrix(.26 0 0 .26 -543 47)" y1="94" y2="94">
            <stop offset="0" stop-color="#27AE60"/>
            <stop offset="1" stop-color="#30C26D"/>
        </linearGradient>
        <linearGradient id="g" x1="-6668" x2="7521" gradientTransform="matrix(.28 0 0 .24 -543 47)" y1="126" y2="126">
            <stop offset="0" stop-color="#27AE60"/>
            <stop offset="1" stop-color="#30C26D"/>
        </linearGradient>
    </defs>
    <g stroke-width=".265">
        <path fill="#27ae60"
              d="M18.97 31.049l-.066-.013-.066.04-.027.065-.092.926-.45.093-.066.027-.013.026-.014.053v.066h.014l.383.834h1.588l.423-.278.04-.04.013-.04-.013-.079-.08-.066-.397-.106.318-.833v-.093l-.013-.013-.053-.053h-.093l-.74.278-.53-.754-.066-.04m-3.413-25.81l-.33.145-1.496.887-.37.053.026.145-1.812 1.058-.357.675h-.807l-1.323.767-.516 1.257h-1.64l-2.117 1.23q-.265.146-.41.424-.159.251-.159.555v.199l-.582.212-.53-.755q-.026-.04-.065-.04l-.066-.012-.066.04-.027.065-.093.926-.45.093-.065.026-.014.027-.013.053v.066h.013l.384.833h1.574V20.4l.649 1.217-.649.794v2.157q0 .304.16.568.145.265.41.424l2.632 1.548.674.383 4.975 2.91 1.891 1.112-.145-.066h-.093q-.04 0-.066.04v.013q-.026.04-.013.092l.251.807h1.284l.185-.476v-.119l-.066-.053h-.08l-.33.106-.014-.066.477-.146 3.148-1.839.82-1.256 1.085.145 3.956-2.302.29-.172 1.112-.661q.251-.159.41-.424.146-.264.146-.568v-5.874l-.556-.82.556-.874v-4.564q0-.304-.146-.555-.159-.278-.41-.424l-4.14-2.42h-.874l-.436-.755-3.956-2.301-1.005-.596q-.278-.172-.582-.172l-.239.027M3.532 26.009l-.026.066-.093.926-.45.092-.066.027-.013.026-.013.053v.066h.013l.384.834h1.587l.423-.278.04-.04.013-.04-.013-.079-.08-.066-.396-.106.317-.833v-.093l-.013-.013-.053-.053h-.092l-.741.278-.53-.754q-.026-.04-.066-.04l-.066-.013-.066.04M0 9.26L15.875 0 31.75 9.26v18.521l-15.875 9.26L0 27.782V9.261M13.097 30.4h-.093l-.74.277-.53-.754-.066-.04-.066-.013-.066.04-.027.066-.092.926-.45.093-.066.026-.013.027-.014.053v.066h.014l.383.833h1.588l.423-.277.04-.04.013-.04-.013-.08-.08-.065-.396-.106.317-.834v-.092l-.013-.013-.053-.053M23.416 8.004q-.027.04-.013.092l.25.807h1.284l.185-.476v-.119l-.066-.053h-.08l-.33.106-.225-1.098-.04-.066-.066-.027-.079.027-.04.066-.264.833-.357-.145h-.093q-.04 0-.066.04v.013m4.167 17.859q-.04 0-.066.04v.013q-.027.04-.013.093l.251.806h1.283l.186-.476v-.119l-.067-.053h-.079l-.33.106-.226-1.098-.04-.066-.065-.027-.08.027-.04.066-.264.834-.357-.146h-.093"/>
        <path fill="url(#a)"
              d="M-435.795 59.69v1.535h-1.574l-.384-.833h-.013v-.067l.013-.052.013-.027.066-.026.45-.093.093-.926.026-.066.066-.04.067.013q.04 0 .066.04l.529.754.582-.212"
              transform="translate(440.04 -47.057)"/>
        <path fill="url(#b)"
              d="M-436.51 73.065l.067-.04.066.014q.04 0 .066.04l.53.753.74-.277h.093l.053.053.013.013v.092l-.318.834.397.106.08.066.013.08-.013.039-.04.04-.423.277h-1.588l-.384-.833h-.013v-.066l.013-.053.014-.027.066-.026.45-.093.092-.926.027-.066"
              transform="translate(440.04 -47.057)"/>
        <path fill="url(#c)"
              d="M-426.945 77.457l.053.053.014.013v.093l-.318.833.397.106.08.066.012.08-.013.04-.04.04-.423.277h-1.587l-.384-.833h-.013v-.067l.013-.053.013-.026.066-.026.45-.093.093-.926.026-.066.067-.04.066.013.066.04.529.754.74-.278h.093"
              transform="translate(440.04 -47.057)"/>
        <path fill="url(#d)"
              d="M-425.053 78.569l.238.132q.265.145.57.145h.105l.013.066.33-.105h.08l.066.053v.119l-.185.476h-1.283l-.251-.807q-.014-.053.013-.093v-.013q.026-.04.066-.04h.093l.145.067"
              transform="translate(440.04 -47.057)"/>
        <path fill="url(#e)"
              d="M-416.626 55.06v-.013q.027-.04.066-.04h.093l.357.146.265-.834.04-.066.079-.026.066.026.04.066.224 1.098.331-.105h.08l.066.053v.119l-.186.476h-1.283l-.251-.807q-.013-.053.013-.093"
              transform="translate(440.04 -47.057)"/>
        <path fill="url(#f)"
              d="M-412.459 72.92h.093l.357.145.265-.833.04-.066.079-.027.066.027.04.066.225 1.098.33-.106h.08l.066.053v.119l-.185.476h-1.284l-.251-.807q-.013-.053.013-.092v-.014q.027-.04.066-.04"
              transform="translate(440.04 -47.057)"/>
        <path fill="url(#g)"
              d="M-421.07 78.105l.065.04.53.754.74-.278h.093l.053.053.013.014v.092l-.318.834.397.105.08.067.013.079-.013.04-.04.04-.423.277h-1.588l-.383-.833h-.014v-.066l.014-.053.013-.027.066-.026.45-.093.092-.926.027-.066.066-.04.066.013"
              transform="translate(440.04 -47.057)"/>
    </g>
</svg>