<svg xmlns="http://www.w3.org/2000/svg" width="87.6" height="100.45" viewBox="0 0 23.178 26.577" version="1.1">
    <defs>
        <linearGradient id="a" x1="2876" x2="7836" gradientTransform="matrix(.13 0 0 .51 -543 47)" y1="100" y2="100">
            <stop offset="0" stop-color="#27AE60"/>
            <stop offset="1" stop-color="#30C26D"/>
        </linearGradient>
        <linearGradient id="b" x1="-2598" x2="8116" gradientTransform="matrix(.26 0 0 .26 -543 47)" y1="207" y2="207">
            <stop offset="0" stop-color="#27AE60"/>
            <stop offset="1" stop-color="#30C26D"/>
        </linearGradient>
        <linearGradient id="c" x1="-2534" x2="8165" gradientTransform="matrix(.26 0 0 .26 -543 47)" y1="169" y2="169">
            <stop offset="0" stop-color="#27AE60"/>
            <stop offset="1" stop-color="#30C26D"/>
        </linearGradient>
        <linearGradient id="d" x1="-4542" x2="9685" gradientTransform="matrix(.28 0 0 .24 -543 47)" y1="196" y2="196">
            <stop offset="0" stop-color="#27AE60"/>
            <stop offset="1" stop-color="#30C26D"/>
        </linearGradient>
        <linearGradient id="e" x1="-2585" x2="8129" gradientTransform="matrix(.26 0 0 .26 -543 47)" y1="199" y2="199">
            <stop offset="0" stop-color="#27AE60"/>
            <stop offset="1" stop-color="#30C26D"/>
        </linearGradient>
        <linearGradient id="f" x1="-4502" x2="9687" gradientTransform="matrix(.28 0 0 .24 -543 47)" y1="207" y2="207">
            <stop offset="0" stop-color="#27AE60"/>
            <stop offset="1" stop-color="#30C26D"/>
        </linearGradient>
        <linearGradient id="g" x1="-2552" x2="8161" gradientTransform="matrix(.26 0 0 .26 -543 47)" y1="234" y2="234">
            <stop offset="0" stop-color="#27AE60"/>
            <stop offset="1" stop-color="#30C26D"/>
        </linearGradient>
        <linearGradient id="h" x1="-4506" x2="9683" gradientTransform="matrix(.28 0 0 .24 -543 47)" y1="270" y2="270">
            <stop offset="0" stop-color="#27AE60"/>
            <stop offset="1" stop-color="#30C26D"/>
        </linearGradient>
        <linearGradient id="i" x1="664" x2="6304" gradientTransform="matrix(.21 0 0 .33 -543 47)" y1="211" y2="211">
            <stop offset="0" stop-color="#27AE60"/>
            <stop offset="1" stop-color="#30C26D"/>
        </linearGradient>
        <linearGradient id="j" x1="-2539" x2="8175" gradientTransform="matrix(.26 0 0 .26 -543 47)" y1="227" y2="227">
            <stop offset="0" stop-color="#27AE60"/>
            <stop offset="1" stop-color="#30C26D"/>
        </linearGradient>
    </defs>
    <g stroke-width=".265">
        <path fill="#27ae60"
              d="M18.31 15.61l-.067-.026-.08.026-.039.067-.264.833-.358-.146h-.092q-.04 0-.066.04v.013q-.027.04-.014.093l.252.807h1.283l.185-.476v-.119l-.066-.053h-.08l-.33.106-.225-1.098-.04-.067M.08 7.382v-.159q0-.304.16-.555.145-.278.41-.424l2.116-1.23h1.64l.516-1.257 1.323-.767h.807l.357-.675L11.06.172q.198-.132.423-.159L11.629 0q.304 0 .582.172l4.96 2.897.437.754h.873l4.141 2.421q.251.146.41.424.146.25.146.555v4.564l-.556.873.556.82v5.874q0 .305-.146.57-.159.264-.41.422l-5.358 3.136-1.085-.146-.82 1.257-3.148 1.839-.556.145-.212-1.045-.04-.066-.065-.026-.08.026-.04.066-.264.834h-.027L.648 20.346q-.264-.158-.41-.423-.159-.264-.159-.569v-2.156l.649-.794-.649-1.217V8.903l.358-.238.04-.04.013-.04-.014-.079-.08-.066-.317-.08L0 8.335l.08-.198.238-.635v-.093l-.014-.013-.053-.053H.16l-.08.04m2.7 3.043l-.08.026-.04.066-.264.834-.358-.146h-.092q-.04 0-.066.04v.013q-.027.04-.014.093l.252.807H3.4l.185-.477v-.119l-.066-.053h-.08l-.33.106-.225-1.098-.04-.066-.066-.026M11.1.926L11.06.86 10.98.833l-.08.04-.039.066-.211 1.085-.331-.106-.08.013-.066.053v.119l.186.477h1.283l.238-.82v-.093l-.066-.053h-.093l-.37.145-.252-.833M7.064 4.26l-.013.013v.093l.331.82-.41.119-.066.053-.027.092.027.027.026.04.424.29h1.587l.384-.833.013-.013.013-.066-.026-.04-.014-.026-.066-.04-.436-.08-.106-.925-.027-.067-.066-.04h-.066l-.066.04-.516.754-.754-.264h-.092l-.053.053M5.993 8.268l-.04.066-.264.834-.357-.146h-.093q-.04 0-.066.04v.013q-.027.04-.013.093l.251.807h1.283l.185-.476v-.12l-.066-.052h-.08l-.33.105-.225-1.098-.04-.066-.066-.026-.079.026m6.297-1.045l-.529-.754-.066-.04-.066-.013-.066.04-.027.066-.092.926-.45.093-.066.026-.013.026-.014.053v.067h.014l.383.833h1.588l.423-.278.04-.04.013-.04-.013-.079-.08-.066-.397-.106.318-.833v-.093l-.013-.013-.053-.053h-.093l-.74.278m1.547 11.06q-.04 0-.066.04v.013q-.026.04-.013.092l.251.807h1.283l.186-.476v-.119l-.066-.053h-.08l-.33.106-.225-1.098-.04-.066-.066-.027-.08.027-.04.066-.264.833-.357-.145h-.093m-3.307 3.624l-.066.04-.027.066-.092.926-.45.093-.066.026-.013.027-.013.053v.066h.013l.383.833h1.588l.423-.278.04-.04.013-.039-.013-.08-.08-.065-.396-.106.317-.834v-.092l-.013-.013-.053-.053h-.093l-.74.277-.53-.754-.066-.04-.066-.013"/>
        <path fill="url(#a)"
              d="M183.185 100.622v-.543l.317.08.08.066.013.079-.014.04-.04.04-.356.238m0-.768V99.1l.079-.04h.093l.052.053.014.014v.092l-.238.635"
              transform="translate(-183.105 -91.718)"/>
        <path fill="url(#b)"
              d="M185.883 102.143l.066.026.04.067.225 1.098.33-.106h.08l.066.053v.119l-.185.476h-1.283l-.252-.807q-.013-.053.014-.093v-.013q.026-.04.066-.04h.092l.358.146.264-.833.04-.067.08-.026"
              transform="translate(-183.105 -91.718)"/>
        <path fill="url(#c)"
              d="M194.204 92.644l.252.834.37-.146h.093l.066.053v.093l-.238.82h-1.283l-.186-.476v-.119l.067-.053.079-.013.33.105.212-1.084.04-.067.08-.04.079.027.04.066"
              transform="translate(-183.105 -91.718)"/>
        <path fill="url(#d)"
              d="M190.17 95.978l.052-.053h.093l.754.265.516-.754.066-.04h.066l.066.04.027.066.106.926.436.08.066.039.014.026.026.04-.013.066-.013.013-.384.834h-1.587l-.424-.291-.026-.04-.027-.026.027-.093.066-.053.41-.119-.33-.82v-.093l.012-.013"
              transform="translate(-183.105 -91.718)"/>
        <path fill="url(#e)"
              d="M189.098 99.987l.08-.027.066.027.04.066.224 1.098.33-.106h.08l.066.053v.119l-.185.476h-1.283l-.251-.807q-.014-.053.013-.092v-.014q.026-.04.066-.04h.093l.357.146.264-.833.04-.066"
              transform="translate(-183.105 -91.718)"/>
        <path fill="url(#f)"
              d="M195.395 98.941l.74-.277h.094l.052.053.014.013v.092l-.318.834.397.106.08.066.013.08-.014.039-.04.04-.423.277h-1.587l-.384-.833h-.013v-.066l.013-.053.013-.027.067-.026.45-.093.092-.926.026-.066.067-.04.066.014.066.04.529.753"
              transform="translate(-183.105 -91.718)"/>
        <path fill="url(#g)"
              d="M196.943 110.001h.093l.357.146.264-.834.04-.066.08-.026.065.026.04.066.225 1.098.33-.106h.08l.066.053v.119l-.185.477h-1.283l-.251-.807q-.014-.053.013-.093v-.013q.026-.04.066-.04"
              transform="translate(-183.105 -91.718)"/>
        <path fill="url(#h)"
              d="M193.636 113.626l.066.013.066.04.53.754.74-.278h.093l.052.053.014.013v.093l-.318.833.397.106.08.066.013.08-.014.04-.04.039-.423.278h-1.587l-.384-.834h-.013v-.066l.013-.053.013-.026.067-.027.45-.092.092-.926.026-.067.067-.04"
              transform="translate(-183.105 -91.718)"/>
        <path fill="url(#i)"
              d="M194.76 118.296h-.026q-.305 0-.57-.146l-.132-.066h.027l.265-.833.04-.066.079-.027.066.027.04.066.211 1.045"
              transform="translate(-183.105 -91.718)"/>
        <path fill="url(#j)"
              d="M201.414 107.329l.04.066.225 1.098.33-.106h.08l.066.053v.119l-.185.476h-1.283l-.251-.807q-.014-.053.013-.092v-.014q.026-.04.066-.04h.092l.358.146.264-.833.04-.066.08-.027.065.027"
              transform="translate(-183.105 -91.718)"/>
    </g>
</svg>