<svg xmlns="http://www.w3.org/2000/svg" width="120" height="140" viewBox="0 0 31.75 37.042" version="1.1">
    <defs>
        <linearGradient id="a" x1="-4739" x2="5961" gradientTransform="matrix(.26 0 0 .26 -543 47)" y1="30" y2="30">
            <stop offset="0" stop-color="#27AE60"/>
            <stop offset="1" stop-color="#30C26D"/>
        </linearGradient>
        <linearGradient id="b" x1="-4731" x2="5982" gradientTransform="matrix(.26 0 0 .26 -543 47)" y1="95" y2="95">
            <stop offset="0" stop-color="#27AE60"/>
            <stop offset="1" stop-color="#30C26D"/>
        </linearGradient>
        <linearGradient id="c" x1="-6603" x2="7586" gradientTransform="matrix(.28 0 0 .24 -543 47)" y1="49" y2="49">
            <stop offset="0" stop-color="#27AE60"/>
            <stop offset="1" stop-color="#30C26D"/>
        </linearGradient>
        <linearGradient id="d" x1="-6601" x2="7588" gradientTransform="matrix(.28 0 0 .24 -543 47)" y1="105" y2="105">
            <stop offset="0" stop-color="#27AE60"/>
            <stop offset="1" stop-color="#30C26D"/>
        </linearGradient>
        <linearGradient id="e" x1="-4769" x2="5931" gradientTransform="matrix(.26 0 0 .26 -543 47)" y1="22" y2="22">
            <stop offset="0" stop-color="#27AE60"/>
            <stop offset="1" stop-color="#30C26D"/>
        </linearGradient>
        <linearGradient id="f" x1="-6557" x2="7632" gradientTransform="matrix(.28 0 0 .24 -543 47)" y1="47" y2="47">
            <stop offset="0" stop-color="#27AE60"/>
            <stop offset="1" stop-color="#30C26D"/>
        </linearGradient>
        <linearGradient id="g" x1="-6592" x2="7635" gradientTransform="matrix(.28 0 0 .24 -543 47)" y1="36" y2="36">
            <stop offset="0" stop-color="#27AE60"/>
            <stop offset="1" stop-color="#30C26D"/>
        </linearGradient>
        <linearGradient id="h" x1="-4812" x2="5901" gradientTransform="matrix(.26 0 0 .26 -543 47)" y1="58" y2="58">
            <stop offset="0" stop-color="#27AE60"/>
            <stop offset="1" stop-color="#30C26D"/>
        </linearGradient>
        <linearGradient id="i" x1="-4800" x2="5914" gradientTransform="matrix(.26 0 0 .26 -543 47)" y1="50" y2="50">
            <stop offset="0" stop-color="#27AE60"/>
            <stop offset="1" stop-color="#30C26D"/>
        </linearGradient>
        <linearGradient id="j" x1="-4767" x2="5946" gradientTransform="matrix(.26 0 0 .26 -543 47)" y1="85" y2="85">
            <stop offset="0" stop-color="#27AE60"/>
            <stop offset="1" stop-color="#30C26D"/>
        </linearGradient>
        <linearGradient id="k" x1="-4754" x2="5960" gradientTransform="matrix(.26 0 0 .26 -543 47)" y1="78" y2="78">
            <stop offset="0" stop-color="#27AE60"/>
            <stop offset="1" stop-color="#30C26D"/>
        </linearGradient>
        <linearGradient id="l" x1="-6561" x2="7628" gradientTransform="matrix(.28 0 0 .24 -543 47)" y1="110" y2="110">
            <stop offset="0" stop-color="#27AE60"/>
            <stop offset="1" stop-color="#30C26D"/>
        </linearGradient>
        <linearGradient id="m" x1="-6547" x2="7642" gradientTransform="matrix(.28 0 0 .24 -543 47)" y1="126" y2="126">
            <stop offset="0" stop-color="#27AE60"/>
            <stop offset="1" stop-color="#30C26D"/>
        </linearGradient>
        <linearGradient id="n" x1="-4780" x2="5934" gradientTransform="matrix(.26 0 0 .26 -543 47)" y1="115" y2="115">
            <stop offset="0" stop-color="#27AE60"/>
            <stop offset="1" stop-color="#30C26D"/>
        </linearGradient>
        <linearGradient id="o" x1="-6572" x2="7617" gradientTransform="matrix(.28 0 0 .24 -543 47)" y1="121" y2="121">
            <stop offset="0" stop-color="#27AE60"/>
            <stop offset="1" stop-color="#30C26D"/>
        </linearGradient>
    </defs>
    <g stroke-width=".265">
        <path fill="url(#a)"
              d="M-380.59 55.312l.067.053v.119l-.186.476h-1.283l-.251-.807.013-.093v-.013l.066-.04h.093l.357.146.264-.834.04-.066.08-.026.066.026.04.066.224 1.098.33-.105h.08"
              transform="translate(405.645 -47.057)"/>
        <path fill="#27ae60"
              d="M25.055 8.255h-.079l-.33.105-.226-1.098-.04-.066-.065-.026-.08.026-.04.066-.264.834-.357-.146h-.093l-.066.04v.013l-.013.093.251.807h1.283l.186-.476v-.119l-.066-.053m2.526 17.608q-.04 0-.066.04v.013q-.026.04-.013.092l.251.807h1.284l.185-.476v-.119l-.066-.053h-.08l-.33.106-.225-1.098-.04-.066-.066-.027-.08.027-.04.066-.264.833-.357-.145h-.093m4.168 1.918l-15.875 9.26L0 27.781V9.26L15.875 0 31.75 9.26v18.52M2.817 13.07l-.45.093-.066.026-.013.027-.013.053v.066h.013l.384.833h1.587l.424-.278.04-.04.013-.04-.014-.078-.079-.067-.397-.105.318-.834v-.092l-.014-.014-.052-.053h-.093l-.74.278-.53-.754-.066-.04-.066-.013-.066.04-.027.066-.092.926M2.87 27.2v.066h.014l.383.833h1.588l.423-.277.04-.04.013-.04-.013-.08-.08-.065-.396-.106.317-.834v-.092l-.013-.013-.053-.053H5l-.74.277-.53-.754-.066-.04-.066-.012-.066.04-.026.065-.093.926-.45.093-.066.026-.013.027-.013.053M15.346 6.15l-.04-.066-.08-.026-.079.04-.04.065-.211 1.085-.33-.106-.08.014-.066.053v.119l.185.476h1.283l.238-.82v-.093l-.066-.053h-.093l-.37.146-.251-.834m1.931 6.02l-.74.277-.53-.754q-.026-.04-.066-.04l-.066-.013-.066.04-.027.066-.092.926-.45.093-.066.026-.013.027-.014.053v.066h.014l.383.833h1.588l.423-.278.04-.04.013-.039-.013-.08-.08-.065-.396-.106.317-.834v-.092l-.013-.014-.053-.052h-.093m-5.98-2.58l.331.82-.41.12-.066.052-.026.093.026.026.027.04.423.29h1.588l.383-.833.013-.013.014-.066-.027-.04-.013-.026-.066-.04-.437-.08-.106-.925-.026-.066-.066-.04h-.066l-.066.04-.516.754-.754-.265h-.093l-.053.053-.013.013v.093m-5.173 6.892q-.026.04-.013.093l.251.807h1.284l.185-.476v-.12l-.066-.052h-.08l-.33.105-.225-1.098-.04-.066-.066-.026-.08.026-.04.066-.264.834-.357-.146h-.093q-.04 0-.066.04v.013m4.3-2.923l-.04-.067-.066-.026-.08.026-.04.067-.264.833-.357-.146h-.093q-.04 0-.066.04v.013q-.026.04-.013.093l.252.807h1.283l.185-.476v-.119l-.066-.053h-.08l-.33.106-.225-1.098m11.165 8.07v.013q-.026.04-.013.092l.251.807h1.284l.185-.476v-.119l-.066-.053h-.08l-.33.106-.225-1.098-.04-.066-.066-.027-.08.027q-.04.026-.04.066l-.264.833-.357-.145h-.093l-.066.04m-2.606 1.124l-.066-.027-.08.027q-.04.026-.04.066l-.264.833-.357-.145h-.092l-.067.04v.013q-.026.04-.013.092l.252.807h1.283l.185-.476v-.119l-.066-.053h-.08l-.33.106-.225-1.098-.04-.066m-2.804 4.908l-.741.278-.53-.754q-.026-.04-.065-.04l-.067-.013-.066.04-.026.066-.093.926-.45.092-.066.027-.013.026-.013.053v.066h.013l.384.834h1.587l.424-.278.04-.04.012-.04-.013-.079-.08-.066-.396-.106.318-.833v-.093l-.014-.013-.053-.053h-.092m4.127 3.902l-.74.278-.53-.754q-.026-.04-.066-.04l-.066-.013-.066.04-.026.066-.093.926-.45.093-.066.026-.013.027-.013.053v.066h.013l.383.833h1.588l.423-.278.04-.04.013-.039-.013-.08-.08-.066-.396-.105.317-.834v-.092l-.013-.014-.053-.053h-.092m-3.916.252v-.013l-.066-.053h-.08l-.33.105-.225-1.098-.04-.066-.066-.026-.08.026-.04.066-.264.834-.357-.146h-.093l-.066.04v.013q-.026.04-.013.093l.251.807h1.284l.185-.476v-.107m-3.228-1.349l-.013-.013-.053-.053h-.093l-.74.278-.53-.754q-.026-.04-.066-.04l-.066-.013-.066.04-.027.066-.092.926-.45.093-.066.026-.013.027-.014.052v.067h.014l.383.833h1.588l.423-.278.04-.04.013-.04-.013-.079-.08-.066-.397-.106.318-.833v-.093"/>
        <path fill="url(#b)"
              d="M-378.063 72.92h.093l.357.145.265-.833.04-.066.079-.027.066.027.04.066.224 1.098.331-.106h.08l.066.053v.119l-.186.476h-1.283l-.251-.807q-.013-.053.013-.092v-.014q.027-.04.066-.04"
              transform="translate(405.645 -47.057)"/>
        <path fill="url(#c)"
              d="M-402.828 60.127l.093-.926.026-.066.066-.04.066.013.067.04.529.754.74-.278h.093l.053.053.013.013v.093l-.317.834.397.105.08.067.012.079-.013.04-.04.04-.423.277h-1.587l-.384-.833h-.013v-.067l.013-.052.013-.027.066-.026.45-.093"
              transform="translate(405.645 -47.057)"/>
        <path fill="url(#d)"
              d="M-402.775 74.256l.013-.053.014-.027.066-.026.45-.093.092-.926.027-.066.066-.04.066.014.066.04.529.753.74-.277h.093l.053.053.014.013v.092l-.318.834.397.106.08.066.012.08-.013.039-.04.04-.423.277h-1.587l-.384-.833h-.013v-.066"
              transform="translate(405.645 -47.057)"/>
        <path fill="url(#e)"
              d="M-390.3 53.208l.252.834.37-.146h.093l.066.053v.093l-.238.82h-1.284l-.185-.476v-.119l.066-.053.08-.014.33.106.212-1.085.04-.066.08-.04.079.027.04.066"
              transform="translate(405.645 -47.057)"/>
        <path fill="url(#f)"
              d="M-388.368 59.227h.092l.053.053.013.014v.092l-.317.834.397.105.08.067.012.079-.013.04-.04.04-.423.277h-1.587l-.384-.833h-.013v-.066l.013-.053.013-.027.066-.026.45-.093.093-.926.026-.066.066-.04.066.014q.04 0 .066.04l.53.753.74-.278"
              transform="translate(405.645 -47.057)"/>
        <path fill="url(#g)"
              d="M-394.348 56.648v-.093l.013-.013.053-.053h.093l.754.265.516-.754.066-.04h.066l.066.04.027.066.106.926.436.08.066.039.013.026.027.04-.013.066-.014.013-.383.834h-1.588l-.423-.291-.026-.04-.027-.026.026-.093.067-.053.41-.119-.331-.82"
              transform="translate(405.645 -47.057)"/>
        <path fill="url(#h)"
              d="M-399.52 63.54v-.013q.026-.04.066-.04h.092l.357.146.265-.834.04-.066.08-.026.065.026.04.066.225 1.098.33-.105h.08l.066.052v.12l-.185.476h-1.283l-.252-.807q-.013-.053.014-.093"
              transform="translate(405.645 -47.057)"/>
        <path fill="url(#i)"
              d="M-395.221 60.617l.225 1.098.33-.106h.08l.066.053v.119l-.185.476h-1.283l-.252-.807q-.013-.053.014-.093v-.013q.026-.04.066-.04h.092l.357.146.265-.833.04-.067.08-.026.065.026.04.067"
              transform="translate(405.645 -47.057)"/>
        <path fill="url(#j)"
              d="M-386.662 69.81l.04.067.225 1.098.33-.106h.08l.066.053v.119l-.185.476h-1.283l-.252-.807q-.013-.053.013-.092v-.013l.067-.04h.092l.357.145.265-.833q0-.04.04-.066l.08-.027.065.027"
              transform="translate(405.645 -47.057)"/>
        <path fill="url(#k)"
              d="M-384.056 68.686l.066-.04h.093l.357.146.265-.833q0-.04.04-.066l.079-.027.066.027.04.066.225 1.098.33-.106h.08l.066.053v.119l-.185.476h-1.284l-.25-.807q-.014-.053.012-.092v-.014"
              transform="translate(405.645 -47.057)"/>
        <path fill="url(#l)"
              d="M-389.466 74.719h.092l.053.053.013.013v.093l-.317.833.397.106.08.066.012.08-.013.04-.04.039-.423.278h-1.587l-.384-.834h-.013v-.066l.013-.053.013-.026.066-.027.45-.092.093-.927.026-.066.066-.04.066.014q.04 0 .066.04l.53.754.74-.278"
              transform="translate(405.645 -47.057)"/>
        <path fill="url(#m)"
              d="M-385.339 78.621h.093l.053.053.013.014v.092l-.318.834.397.105.08.067.013.079-.013.04-.04.04-.423.277h-1.588l-.384-.833h-.013v-.066l.013-.053.014-.027.066-.026.45-.093.092-.926.027-.066.066-.04.066.013q.04 0 .066.04l.53.754.74-.278"
              transform="translate(405.645 -47.057)"/>
        <path fill="url(#n)"
              d="M-389.255 78.873v.106l-.185.476h-1.283l-.251-.807q-.014-.053.013-.093v-.013l.066-.04h.092l.358.146.264-.834.04-.066.08-.026.065.026.04.066.225 1.098.33-.105h.08l.066.053v.013"
              transform="translate(405.645 -47.057)"/>
        <path fill="url(#o)"
              d="M-392.483 77.523v.093l-.317.833.397.106.08.066.012.08-.013.04-.04.04-.423.277h-1.587l-.384-.833h-.013v-.067l.013-.053.013-.026.066-.026.45-.093.093-.926.026-.066.066-.04.067.013q.04 0 .066.04l.529.754.74-.278h.093l.053.053.013.013"
              transform="translate(405.645 -47.057)"/>
    </g>
</svg>