<svg xmlns="http://www.w3.org/2000/svg" width="120" height="140" viewBox="0 0 31.75 37.042" version="1.1">
    <g stroke-width=".265">
        <path fill="#bb6444"
              d="M23.151 6.23l-.145 1.403 1.389.133.145-1.39-1.389-.145m-7.593-.992l-.331.145-1.495.887-.37.053.026.145-1.217.714-.622-.582-.966 1.019.622.582h-.794l-1.323.767-.515 1.257h-1.64l-2.118 1.23q-.264.146-.41.424-.158.251-.158.555v.926l-.57-.132-.555 2.527 1.125.251v3.281l-.662-.608-1.64 1.772 1.772 1.64.913-.978.265.502-.648.794v2.157q0 .304.158.568.146.265.41.424l2.633 1.548.675.383 2.58 1.508-1.072.331.595 1.918 1.918-.608-.304-.98 3.387 1.985q.264.146.569.146.304 0 .582-.146l1.243-.727.106.304 1.178-.41-.172-.53.793-.476.82-1.256 1.085.145 2.183-1.27.595-.185-.04-.132 1.218-.715.29-.172.543-.317-.688.555.887 1.085 1.098-.886-.847-1.019.12-.08q.25-.158.41-.423.145-.264.145-.568v-5.16h.053l.172-1.482h.013l.106-.978-.344-.04v-4.472q0-.304-.146-.555-.159-.278-.41-.424l-2.884-1.68-.304-.965-.86.277-.093-.053h-.873l-.436-.754-3.956-2.301-1.005-.596q-.278-.172-.582-.172l-.238.027m.9-1.535l1.282-.569-.569-1.27-1.296.57.582 1.27m11.867 6.825l1.323.516.489-1.336-1.31-.502-.502 1.322m2.434 3.797l-1.416-.132-.132 1.402 1.39.132.158-1.402m.992-5.067v18.521l-15.875 9.26L0 27.782V9.261L15.875 0 31.75 9.26m-2.103 18.283l.489-1.323-1.31-.502-.502 1.31 1.323.515m-7.276 4.63l.568-2.513-2.513-.57-.556 2.528 2.5.555m-5.199 1.601l-.224-1.389-1.376.225.211 1.376 1.39-.212M2.552 11.311l-1.124-.807-.82 1.124 1.124.82.82-1.137m5.49-4.935l-1.389-.145-.145 1.402 1.389.133.145-1.39m-6.64 16.51l-.662 2.54 2.54.675.661-2.553-2.54-.662m5.239 6.602l.569 1.283 1.27-.569-.582-1.296-1.257.582"/>
        <path fill="#c26948"
              d="M23.151 6.23l1.39.146-.146 1.39-1.39-.133.146-1.402M4.247 13.36v2.646l-1.125-.251.556-2.527.569.132m6.455 15.637l1.138.662.304.979-1.918.608-.595-1.918 1.071-.33m12.912-1.575l.556-.317.04.132-.596.185m4.71-16.894l.502-1.323 1.31.503-.49 1.336-1.322-.516m1.323 17.013l-1.323-.516.502-1.31 1.31.503-.49 1.323m-7.275 4.63l-2.5-.555.555-2.527 2.513.569-.568 2.513M8.043 6.376l-.145 1.39-1.39-.133.146-1.402 1.39.145"/>
        <path fill="#b55f40"
              d="M12.17 7.183l-.594.344-.358.675h-.013l-.622-.582.966-1.019.622.582M4.247 19.288V20.4l.383.715-.913.979-1.772-1.64 1.64-1.773.662.608M17.62 30.917l1.112-.635.172.529-1.178.41-.106-.304m8.6-5.014l.449-.265.847 1.019-1.098.886-.887-1.085.688-.555m1.125-6.496v-.714l-.556-.82.556-.874v-.092l.344.04-.106.979h-.013l-.172 1.481h-.053m-3.44-9.63l-1.164-.689.86-.277.304.965m-7.448-6.072l-.582-1.27 1.297-.569.568 1.27-1.283.57m14.3 10.622L30.6 15.73l-1.389-.132.132-1.402 1.416.132M17.172 33.774l-1.39.212-.211-1.376 1.376-.225.225 1.39M2.553 11.31l-.82 1.138-1.124-.82.82-1.125 1.124.807m-1.15 11.575l2.54.662L3.28 26.1l-2.54-.675.661-2.54m5.24 6.602l1.256-.582.582 1.296-1.27.57-.569-1.284"/>
    </g>
</svg>