<svg xmlns="http://www.w3.org/2000/svg" width="87.3" height="100.45" viewBox="0 0 23.098 26.577" version="1.1">
    <g stroke-width=".265">
        <path fill="#bb6444"
              d="M7.885 1.998L10.98.172Q11.245 0 11.55 0q.303 0 .581.172l4.961 2.897.437.754h.873l.053.027-1.098.344.608 1.918 1.919-.609-.318-.992 2.977 1.733q.25.146.41.424.145.25.145.555v4.472l-2.196-.252-.29 2.46 2.46.279.026-.225v5.397q0 .305-.145.57-.16.264-.41.422l-.172.106-.08-.106-.635.516-1.799 1.059-.582-1.84-1.918.61.608 1.918 1.522-.463-2.302 1.336-1.085-.146-.82 1.257-.86.503-.238-.701-1.191.41.33.939-1.19.688-.476.145h-.106q-.304 0-.569-.145L7.5 24.395l-.29-.887-.794.252L.57 20.346q-.265-.158-.41-.423Q0 19.66 0 19.354v-2.156l.648-.794-.304-.569.688-.754L0 14.142v-3.347l1.296.291.57-2.513L0 8.149v-.926q0-.304.159-.555.145-.278.41-.424l2.117-1.23h1.64l.516-1.257 1.323-.767h.727l.384.37.966-1.018-.357-.344m1.428 2.487L7.99 3.982l-.502 1.323 1.336.516.49-1.336M3.134 9.948l1.27-.569-.568-1.296-1.27.582.568 1.283m3.44 4.234l.172-1.482h.013l.106-.979-2.474-.278-.278 2.46 2.461.279m2.275 1.362l.45 1.958 1.958-.463-.463-1.958h-.013l-1.932.463M5.596 5.821l1.098-.887-.9-1.084-1.084.886.886 1.085m-.291 1.786L5.9 9.512l1.919-.596-.609-1.918-1.905.609m-1.588 10.04l-1.389-.132-.145 1.39 1.389.132.145-1.39m1.879 4.67l1.098-.886-.9-1.085-1.084.887.886 1.085m3.228 0l.49-1.323-1.324-.503-.502 1.31 1.336.516m9.538-13.745l-2.513-.57-.556 2.527 2.5.556.57-2.513M10.08 6.562l1.389-.16-.159-1.401-1.389.172.159 1.389m3.32 2.923l1.178-.397-.397-1.19-1.19.41.41 1.177m6.931-1.402l-1.27.582.57 1.283 1.282-.569-.582-1.296m2.408 7.62l-1.138-.82-.82 1.138 1.151.82.807-1.138m-6.84 1.164l1.628-1.786-1.773-1.627-1.64 1.773 1.786 1.64m4.312.78l-1.389-.132-.145 1.39 1.389.132.145-1.39m-8.083-2.658l1.283-.582-.568-1.27-1.297.568.582 1.284m3.32 5.887l.662-2.554-2.54-.661-.648 2.54 2.527.675"/>
        <path fill="#b55f40"
              d="M15.452 20.876l-2.527-.675.648-2.54 2.54.661-.661 2.554M6.892 2.99h.08l.357-.675.556-.317.357.344-.966 1.018-.384-.37m11.563.86l1.111.661.318.992-1.919.609-.608-1.918 1.098-.344m4.643 7.845v.092l-.555.873.555.82v.477l-.026.225-2.46-.278.29-2.46 2.196.25m-.727 8.758h-.014l-.7.41.634-.516.08.106m-7.951 4.644l-1.098.648-.33-.94 1.19-.41.238.702M.344 15.836L0 15.186v-1.045l1.032.94-.688.753m8.97-11.35l-.49 1.336-1.336-.516.503-1.323 1.323.503M5.305 7.607l1.905-.609.609 1.918-1.919.596-.595-1.905m.291-1.786L4.71 4.736l1.085-.886.9 1.084-1.099.887m3.254 9.723l1.932-.463h.013l.463 1.958-1.958.463-.45-1.958m-2.275-1.362l-2.46-.278.277-2.46 2.474.277-.106.979h-.013l-.172 1.482m-.979 8.136l-.886-1.085 1.085-.887.9 1.085-1.099.887m7.805-12.833l-.41-1.177 1.19-.41.398 1.19-1.178.397m-3.32-2.923l-.159-1.39 1.39-.171.158 1.402-1.39.159m8.282 2.01l-.569 2.514-2.5-.556.556-2.526 2.513.568m1.852 9.076l-.145 1.389-1.39-.133.146-1.389 1.39.133m-4.313-.78l-1.786-1.641 1.64-1.773 1.773 1.627-1.627 1.786"/>
        <path fill="#c26948"
              d="M19.857 21.92l.027.093-.397.133-1.522.463-.608-1.919 1.918-.608.582 1.839M7.501 24.395l-1.085-.635.794-.252.291.887m-7.5-13.6V8.149l1.864.424-.568 2.513L0 10.795m3.135-.847l-.568-1.283 1.27-.582.568 1.296-1.27.57m.582 7.699l-.145 1.389-1.39-.133.146-1.389 1.39.133m5.106 4.67l-1.336-.516.502-1.31 1.323.503-.49 1.323m11.51-14.235l.582 1.296-1.283.57-.569-1.284 1.27-.582m2.408 7.62l-.807 1.138-1.15-.82.82-1.138 1.137.82m-10.61-.714l-.582-1.284 1.297-.568.568 1.27-1.283.582"/>
    </g>
</svg>