<svg xmlns="http://www.w3.org/2000/svg" width="120" height="140" viewBox="0 0 31.75 37.042" version="1.1">
    <path fill="#bb6444"
          d="M16.682 2.342q-.384-.225-.807-.225-.423 0-.794.225l-3.81 2.222-.225 1.125H9.34L7.157 6.972l-.94 2.024-1.759-.45L2.381 9.75q-.357.198-.569.569-.225.37-.225.793v14.83q0 .41.225.78.212.371.57.583l5.49 3.201 1.388-.211.199 1.137 5.622 3.281q.37.212.794.212.423 0 .807-.212l4.643-2.698.239-1.323 1.23.463 1.243-.728.503-1.654 1.521.463 3.321-1.931h-.013q.357-.212.582-.582.212-.37.212-.78v-5.636l-.86-2.05.86-2.25v-4.895q0-.423-.212-.793-.225-.37-.582-.57h.013l-3.863-2.248-2.5-.225-1.35-2.024-4.987-2.91M0 9.26L15.875 0 31.75 9.26v18.521l-15.875 9.26L0 27.782V9.261"
          stroke-width=".265"/>
</svg>