<svg xmlns="http://www.w3.org/2000/svg" width="120" height="140" viewBox="0 0 31.75 37.042" version="1.1">
    <g stroke-width=".265">
        <path fill="#bb6444"
              d="M26.617 25.572l-1.085.886.887 1.085 1.098-.886-.9-1.085m-1.376-10.967l-.582-1.296-1.27.582.569 1.283 1.283-.569m5.517-.278l-1.416-.132-.132 1.402 1.39.132.158-1.402m-6.363-6.561l.145-1.39-1.389-.145-.145 1.402 1.389.133m3.929 2.764l1.323.516.489-1.336-1.31-.502-.502 1.322M11.549 6.601l-.966 1.019 1.019.966.966-1.019-1.019-.966M1.43 10.504l-.82 1.124 1.124.82.82-1.137-1.124-.807m4.762 3.294l-2.513-.569-.556 2.527 2.5.556.57-2.514m.7.093l.57 1.283 1.27-.569-.57-1.296-1.27.582m-.238-7.66L6.51 7.633l1.389.133.145-1.39-1.389-.145m16.034 7.567l-2.514-.569-.555 2.527 2.5.556.569-2.514m-.397-2.46l1.918-.61-.608-1.917-1.918.608.608 1.918m-4.564 3.374l1.177-.397-.396-1.19-1.191.41.41 1.177m-3.32-2.924l1.389-.159-.16-1.402-1.388.172.159 1.39m2.05-8.084l1.283-.569-.569-1.27-1.296.57.582 1.27m-6.826 9.127l.595 1.905 1.918-.595-.608-1.918-1.905.608m-.595-2.87l.886 1.084 1.098-.886-.9-1.085-1.084.887m2.778.568l1.336.516.49-1.336-1.324-.503-.502 1.323M15.875 0L31.75 9.26v18.521l-15.875 9.26L0 27.782V9.261L15.875 0m5.98 20.307l-1.773-1.627-1.64 1.772 1.785 1.64 1.628-1.785m-5.398-.093l1.283-.582-.569-1.27-1.296.569.582 1.283m1.442 2.672l-.648 2.54 2.527.675.661-2.553-2.54-.662m-2.778-2.58h-.013l-1.932.464.45 1.958 1.958-.463-.463-1.958m6.562 5.609l.608 1.918 1.918-.595-.608-1.932-1.918.609m-16.325-5.61L3.585 18.68l-1.64 1.772 1.772 1.64 1.64-1.785m5.73-2.381l.105-.98-2.474-.277-.278 2.46 2.46.278.173-1.481h.013m12.065 4.815l-.145 1.389 1.389.132.145-1.389-1.389-.132m-16.497 0L6.51 24.13l1.389.132.145-1.389-1.389-.132m2.382 3.717l.886 1.085 1.098-.886-.9-1.085-1.084.886m-5.755-.357l.661-2.553-2.54-.662-.661 2.54 2.54.675m8.533.926l1.336.516.49-1.323-1.324-.503-.502 1.31M7.21 30.771q.635-.278 1.27-.569l-.582-1.296-1.257.582.569 1.283m15.73-1.111l-2.514-.57-.556 2.528 2.5.555.57-2.513m-12.714 1.587l1.918-.608-.608-1.905-1.905.595.595 1.918m8.678-.436l-.396-1.19-1.191.41.41 1.19 1.177-.41m-3.122 3.175l1.39-.212-.225-1.389-1.376.225.211 1.376M25.93 20.108l-.82 1.138 1.15.82.808-1.137-1.138-.82m1.469-.702l.172-1.481h.013l.106-.98-2.461-.277-.291 2.46 2.46.278m1.43 6.31l-.503 1.31 1.323.516.489-1.323-1.31-.503"/>
        <path fill="#c26948"
              d="M28.826 25.718l1.31.502-.49 1.323-1.322-.516.502-1.31m-3.585-11.112l-1.283.569-.569-1.283 1.27-.582.582 1.296m3.083-4.075l.502-1.322 1.31.502-.49 1.336-1.322-.516m-3.93-2.764l-1.388-.133.145-1.402 1.39.145-.146 1.39M6.655 6.23l1.388.145-.145 1.39-1.39-.133.146-1.402m.238 7.66l1.27-.582.57 1.296-1.27.569-.57-1.283m-.7-.093l-.57 2.514-2.5-.556.556-2.527 2.513.569m10.266 6.416l-.582-1.283 1.296-.569.57 1.27-1.284.582m5.226 5.702l1.918-.609.608 1.932-1.918.595-.608-1.918M6.654 22.741l1.39.132-.146 1.39-1.39-.133.146-1.389m5.16 4.286l.502-1.31 1.323.503-.49 1.323-1.335-.516m-1.588 4.22l-.595-1.918 1.905-.595.608 1.905-1.918.608M22.94 29.66l-.568 2.513-2.5-.555.555-2.527 2.513.569m2.99-9.552l1.138.82-.807 1.138-1.151-.82.82-1.138"/>
        <path fill="#b55f40"
              d="M30.758 14.327l-.159 1.402-1.389-.132.132-1.402 1.416.132m-29.33-3.823l1.125.807-.82 1.138-1.124-.82.82-1.125m10.12-3.903l1.019.966-.966 1.019-1.019-.966.966-1.019m.265 3.93l.502-1.323 1.323.502-.49 1.336-1.335-.516m-2.778-.568l1.084-.887.9 1.085-1.098.886-.886-1.084m.595 2.87l1.905-.608.608 1.918-1.918.595-.595-1.905m6.826-9.128l-.582-1.27 1.296-.569.57 1.27-1.284.57m-2.05 8.082l-.16-1.389 1.39-.172.159 1.402-1.39.16m3.321 2.923l-.41-1.178 1.19-.41.397 1.191-1.177.397m4.564-3.374l-.608-1.918 1.918-.608.608 1.918-1.918.608m.397 2.461l-.569 2.514-2.5-.556.555-2.527 2.514.569m-.833 6.509l-1.628 1.786-1.786-1.64 1.64-1.773 1.774 1.627m-6.734 0l.463 1.958-1.958.463-.45-1.958 1.932-.463h.013m2.778 2.58l2.54.66-.661 2.554-2.527-.675.648-2.54m5.252-.145l1.39.132-.146 1.39-1.39-.133.146-1.39m-12.065-4.814h-.013l-.172 1.481-2.46-.278.277-2.46 2.474.278-.106.979m-5.728 2.38l-1.64 1.787-1.773-1.64 1.64-1.773 1.773 1.627M3.28 26.1l-2.54-.675.661-2.54 2.54.662-.661 2.553m5.755.357l1.084-.886.9 1.085-1.098.886-.886-1.085M7.21 30.771l-.569-1.283 1.257-.582.582 1.296q-.635.291-1.27.569m8.572 3.215l-.211-1.376 1.376-.225.224 1.39-1.389.21m3.122-3.174l-1.177.41-.41-1.19 1.19-.41.397 1.19m8.494-11.404l-2.461-.278.291-2.46 2.46.278-.105.979h-.013l-.172 1.481m-.78 6.165l.899 1.085-1.098.886-.887-1.085 1.085-.886"/>
    </g>
</svg>