<svg xmlns="http://www.w3.org/2000/svg" width="120" height="140" viewBox="0 0 31.75 37.042" version="1.1">
    <path fill="#ecdcb8"
          d="M29.382 9.75L25.519 7.5l-2.5-.224-1.35-2.024-4.987-2.91q-.384-.225-.807-.225-.423 0-.794.225l-3.81 2.222-.225 1.125H9.34L7.157 6.972l-.94 2.024-1.759-.45q-1.032.609-2.077 1.204-.357.198-.569.569-.225.37-.225.794v14.83q0 .41.225.78.212.37.57.582l5.49 3.201 1.388-.211.199 1.138 5.622 3.28q.37.212.794.212.423 0 .807-.212l4.643-2.698.239-1.323 1.23.463 1.243-.728.503-1.654 1.521.463 3.321-1.931h-.013q.357-.212.582-.582.212-.37.212-.78v-5.636l-.86-2.05.86-2.25v-4.894q0-.424-.212-.794-.225-.37-.582-.57h.013m2.368 18.032l-15.875 9.26L0 27.782V9.261L15.875 0 31.75 9.26v18.521"
          stroke-width=".265"/>
</svg>