<svg xmlns="http://www.w3.org/2000/svg" width="120" height="140" viewBox="0 0 31.75 37.042" version="1.1">
    <g stroke-width=".265">
        <path fill="#ecdcb8"
              d="M4.855 6.43l7.276-4.247h.013L15.875 0 31.75 9.26v18.521l-15.875 9.26L0 27.782V9.261L4.564 6.6l.013-.013h.013l.265-.159m20.836 3.32q-5.067 1.258-7.29 6.152-.396.86-.687 1.813-.41 1.6-1.164 2.91l-.688 1.032q-2.077 2.739-6.072 3.982l.013.013q-3.149.78-5.186 2.964l8.017 4.67.264-.45.53-1.045q.383-.86.635-1.852.674-2.183 1.799-3.797 2.209-3.162 6.125-4.128L21.974 22q4.749-1.468 6.813-5.053l.529-1.046q.397-.873.635-1.865l.211-.622v-2.301q0-.424-.211-.794-.225-.37-.582-.57h.013l-1.495-.872q-1.019.49-2.21.86l.014.013m4.075 11.1l.198-1.734-1.733-.212-.199 1.747 1.734.198m-.397 6.456q.357-.212.582-.582.211-.37.211-.78V23.31q-1.812 1.495-4.484 2.328l.013.013q-5.067 1.257-7.29 6.139-.396.86-.687 1.812l-.172.609 11.84-6.906h-.013M22.714 5.86l-5.278-3.082q-.37 1.045-.886 1.945l-.688 1.032q-2.077 2.738-6.073 3.982l.014.013q-5.067 1.257-7.29 6.151-.396.86-.7 1.813l-.226.78v5.821q1.866-1.653 4.498-2.302L6.072 22q4.763-1.468 6.826-5.053l.53-1.046q.383-.873.634-1.865.675-2.17 1.8-3.783 2.209-3.175 6.125-4.141l-.013-.013.74-.238M16.67 31.38l-1.059.49.463 1.057 1.059-.49-.463-1.057m3.003-5.557l1.627.635.648-1.614-1.627-.648-.648 1.627m3.73-3.386l-.317.78.767.318.33-.768-.78-.33m-.317 2.83h1.204v-1.203h-1.217l.013 1.204m-6.866 2.447l-.278.516.503.265.304-.516-.53-.265m-2.486-6.535l1.878-.291-.278-1.852-1.878.29.278 1.853m1.825-4.921H14.34l.014 1.203h1.203V16.26m-7.262 7.117l1.733.926.952-1.76-1.746-.939-.94 1.773m-1.124.145l-.265 1.059 1.072.264.265-1.071-1.072-.252M3.598 11.628l1.019-.74-.754-.993-.992.741.727.992m-.397 1.059l-.225-.543-.529.238.225.556.53-.251m3.32-2.54l-.675-.86-.86.688.688.86.847-.688m13.507 1.243l.833.106.12-.82-.847-.12-.106.834m-5.914-5.41l-.185-1.151-1.15.185.184 1.15 1.151-.184m7.726 2.249q-.529.25-1.058.489l.463 1.058 1.058-.49-.463-1.057"/>
        <path fill="#e5d5b2"
              d="M21.841 8.229l.463 1.058-1.058.49-.463-1.059q.53-.238 1.058-.49m3.85 1.522l-.013-.013q1.19-.37 2.21-.86l1.494.873h-.013q.357.198.582.569.212.37.212.794v2.301l-.212.622q-.238.992-.635 1.865l-.53 1.046Q26.724 20.532 21.975 22l.013.013q-3.916.966-6.125 4.128-1.125 1.614-1.8 3.797-.25.992-.634 1.852l-.53 1.045-.264.45-8.017-4.67q2.037-2.183 5.186-2.964l-.013-.013q3.995-1.243 6.072-3.982l.688-1.032q.754-1.31 1.164-2.91.291-.953.688-1.813 2.222-4.894 7.29-6.151m4.074 11.1l-1.733-.2.198-1.745 1.733.211-.198 1.733M22.715 5.861l-.741.238.013.013q-3.916.966-6.125 4.14-1.125 1.615-1.8 3.784-.25.992-.634 1.865l-.53 1.046Q10.836 20.532 6.073 22l.013.013q-2.632.649-4.497 2.302v-5.82l.224-.781q.305-.953.702-1.813 2.222-4.894 7.289-6.151l-.013-.013q3.995-1.244 6.072-3.982l.688-1.032q.516-.9.886-1.945l5.279 3.083m6.654 21.444h.013l-11.84 6.906.172-.609q.29-.952.688-1.812 2.222-4.882 7.29-6.139l-.014-.013q2.672-.833 4.485-2.328v2.632q0 .41-.212.78-.225.371-.582.583M14.116 5.98l-1.151.185-.186-1.151 1.151-.185.186 1.15m5.913 5.411l.106-.833.847.119-.12.82-.833-.106M6.522 10.147l-.847.688-.688-.86.86-.688.675.86m-3.32 2.54l-.53.251-.225-.555.53-.239.225.543m.396-1.059l-.727-.992.992-.74.754.992-1.019.74M7.17 23.521l1.072.252-.265 1.071-1.071-.264.264-1.059m1.125-.145l.939-1.773 1.746.94-.952 1.759-1.733-.926m7.263-7.117v1.204h-1.204l-.013-1.204h1.217m-1.826 4.92l-.278-1.851 1.879-.291.278 1.852-1.879.29m2.487 6.536l.53.265-.305.516-.503-.265.278-.516m6.866-2.447l-.013-1.204h1.217v1.204h-1.204m.318-2.831l.78.33-.33.768-.768-.318.318-.78m-3.731 3.386l.648-1.627 1.627.648-.648 1.614-1.627-.635m-3.003 5.557l.463 1.058-1.058.49-.463-1.059 1.058-.49"/>
        <path fill="#e0d1af" d="M4.577 6.588l.278-.159-.264.16h-.014"/>
    </g>
</svg>