<svg xmlns="http://www.w3.org/2000/svg" width="87.3" height="100.45" viewBox="0 0 23.098 26.577" version="1.1">
    <g stroke-width=".265">
        <path fill="#e5d5b2"
              d="M4.392 4.855q.53-.198 1.085-.33l-.013-.014Q8.77 3.48 10.769 1.43l.357-.397.41-.503.344-.476q.119.04.251.119l2.924 1.707q-2.104 1.124-3.52 3.148-1.124 1.614-1.798 3.784-.252.992-.635 1.865l-.53 1.045q-2.063 3.585-6.826 5.054l.014.013q-.926.225-1.76.582v-.172l.648-.794L0 15.187V7.805l.33-.357q1.509-1.6 3.626-2.434l.436-.159m13.48-1.032l.107.238-1.059.49-.463-1.059.701-.317.37.648h.345M20.2 4.882l2.342 1.362q.25.146.41.423.145.252.145.556v4.564l-.555.873.555.82v.08q-1.76 1.878-4.577 2.924l-.873.29.013.014-.225.066q-1.415.37-2.593 1.045l-.463.278-.29.185-.292.212q-1.071.794-1.918 1.878l-.344.463q-.41.582-.741 1.23-.41.755-.728 1.615l-.33.952-.238.847-6.866-4.009q1.243-.714 2.738-1.098l.106-.026-.013-.013q3.995-1.244 6.072-3.982l.688-1.032q.754-1.31 1.164-2.91.291-.953.688-1.813 1.958-4.313 6.125-5.794m2.818 14.909l-.066.132q-.159.265-.41.423l-5.358 3.136-.98-.133q1.998-2.116 5.054-2.897l.106-.026-.013-.013 1.667-.622m-7.21 4.008l-.53.794-.145.093.675-.887m-3.413 2.487l-.265.146-.476.145h-.212l.9-.423.053.132m-1.164-15.253v1.204h-1.204l-.013-1.204h1.217m4.577-5.702l.847.12-.12.82-.833-.106.106-.834m-6.68 8.771l1.878-.29.278 1.851-1.879.291-.278-1.852m3.294 8.652l-.304.516-.503-.264.278-.516.53.264m5.198-3.135l-.648 1.614-1.627-.635.648-1.627 1.627.648M6.654 17.317l-.952 1.76-1.733-.927.94-1.772 1.745.939m-3.81.979l1.072.251-.265 1.072-1.071-.265.264-1.058m17.013-.754l-.33.767-.768-.317.318-.78.78.33m-1.111 1.296h1.217v1.204h-1.204l-.013-1.204"/>
        <path fill="#ecdcb8"
              d="M11.88.053l-.344.476-.41.503-.357.397Q8.77 3.479 5.464 4.51l.013.013q-.556.133-1.085.331l.45-1.098 1.323-.767h.807l.357-.675L10.98.172Q11.245 0 11.55 0l.33.053m-7.924 4.96Q1.839 5.848.33 7.449L0 7.805v-.582q0-.304.159-.555.145-.278.41-.424l2.117-1.23h1.27M0 17.37q.833-.357 1.76-.582l-.014-.013q4.763-1.469 6.827-5.054l.529-1.045q.383-.873.635-1.865.674-2.17 1.799-3.784 1.415-2.024 3.519-3.148l2.037 1.19.066.106-.7.318.462 1.058 1.058-.49-.105-.238h.529L20.2 4.882q-4.167 1.481-6.125 5.794-.397.86-.688 1.812-.41 1.601-1.164 2.91l-.688 1.033q-2.077 2.738-6.072 3.982l.013.013-.106.026q-1.495.384-2.738 1.098L.569 20.347q-.265-.16-.41-.424Q0 19.66 0 19.354V17.37m23.098-3.81v5.794l-.08.437-1.666.622.013.013-.106.026q-3.056.78-5.053 2.898l-.397.45-.675.886-2.738 1.6-.053-.132-.9.423-.463-.145-1.481-.873.238-.847.33-.952q.318-.86.728-1.614.33-.649.74-1.23l.345-.464q.846-1.084 1.918-1.878l.291-.212.291-.185.463-.278q1.177-.675 2.593-1.045l.225-.066-.013-.013.873-.291q2.818-1.046 4.577-2.924m-7.29-8.229l-.105.834.833.106.12-.82-.847-.12m-4.577 5.702h-1.218l.014 1.204h1.204v-1.204m-8.388 7.263l-.264 1.058 1.071.265.265-1.072-1.072-.251m3.81-.979l-1.746-.94-.94 1.773 1.734.926.952-1.759m10.967 2.302l-1.627-.648-.648 1.627 1.627.635.648-1.614m-5.199 3.135l-.529-.264-.278.516.503.264.304-.516m-3.294-8.652l.278 1.852 1.878-.29-.277-1.853-1.879.291m10.729 3.44l-.78-.33-.318.78.767.317.331-.767m-1.111 1.296l.013 1.204h1.204v-1.204h-1.217"/>
        <path fill="#e0d1af" d="M.251 1.363l.278-.16-.264.16H.25"/>
    </g>
</svg>