<svg xmlns="http://www.w3.org/2000/svg" width="120" height="140" viewBox="0 0 31.75 37.042" version="1.1">
    <g stroke-width=".265">
        <path fill="#ecdcb8"
              d="M4.855 6.43l7.276-4.247h.013L15.875 0 31.75 9.26v18.521l-15.875 9.26L0 27.782V9.261L4.564 6.6l.013-.013h.013l.265-.159m22.49 12.436q.833-.873 1.442-1.918l.529-1.046q.397-.873.635-1.865l.211-.622v-2.301q0-.424-.211-.794-.225-.37-.582-.57h.013l-1.495-.872q-1.019.49-2.21.86l.014.013q-.622.159-1.19.37l-1.853-1.084h-.45l-.357-.807-.423.198-.08-.146-1.997-1.164q1.204-.648 2.646-1.005l-.013-.013.74-.238-5.278-3.083q-.37 1.045-.886 1.945l-.358.569-.396-.08-.239.027q-.172.04-.33.145l-1.495.887-.37.053.026.145-1.813 1.058-.357.675h-.807l-1.323.767-.463 1.138-.317.12H6.932l-2.117 1.23q-.264.145-.41.423-.159.251-.159.555v.688q-1.018 1.191-1.733 2.779-.396.86-.7 1.812l-.226.78v5.821q1.178-1.045 2.66-1.68v1.932q0 .304.158.568.146.265.41.424l2.104 1.243q-1.297.728-2.302 1.813l8.017 4.67.264-.45.53-1.045.383-.98 1.416.834q.264.146.555.146l-.172.08.463 1.057 1.059-.489-.424-.979q1.416-.82 2.818-1.654l.82-1.256.186.026q-.543.569-1.006 1.23-.635.9-1.124 1.985-.397.86-.688 1.812l-.172.609 11.84-6.906h-.013q.357-.212.582-.582.211-.37.211-.78V23.31q-1.256 1.032-2.923 1.76.106-.239.106-.503v-5.702m2.42 1.984l.199-1.733-1.733-.211-.198 1.746 1.733.198M12.965 6.165l1.15-.185-.185-1.151-1.15.185.185 1.15m-7.29 4.67l.847-.687-.675-.86-.86.688.688.86m-3.003 2.103l.53-.251-.225-.543-.53.239.225.555m.199-2.302l.727.993 1.019-.741-.754-.992-.992.74"/>
        <path fill="#e5d5b2"
              d="M2.87 10.636l.993-.74.754.992-1.019.74-.727-.992m21.63-.516q.568-.211 1.19-.37l-.013-.013q1.19-.37 2.21-.86l1.494.873h-.013q.357.198.582.569.212.37.212.794v2.301l-.212.622q-.238.992-.635 1.865l-.53 1.046q-.608 1.045-1.441 1.918v-.172l-.556-.82.556-.873v-4.565q0-.304-.146-.555-.158-.278-.41-.424l-2.288-1.336m2.738 14.95q1.667-.728 2.924-1.76v2.632q0 .41-.212.781-.225.37-.582.582h.013l-11.84 6.906.172-.609q.29-.952.688-1.812.49-1.085 1.124-1.985.463-.661 1.006-1.23l.9.12 3.955-2.303.29-.172 1.112-.661q.251-.159.41-.424l.04-.066m-10.53 6.39l.423.979-1.058.49-.464-1.059.172-.08h.014q.304 0 .582-.145l.33-.185m-2.897-.648l-.383.979-.53 1.045-.264.45-8.017-4.67q1.005-1.085 2.302-1.813l.53.305.674.383 5.688 3.32m-9.564-8.175q-1.482.635-2.66 1.68v-5.82l.225-.781q.305-.953.702-1.812.714-1.588 1.733-2.779V20.4l.648 1.218-.648.793v.225m4.061-12.409l.317-.119-.052.12h-.265m7.885-4.935l.357-.57q.516-.899.886-1.944l5.279 3.083-.741.238.013.013q-1.442.357-2.646 1.005L17.383 5.98l-1.005-.596-.185-.092m5.225 3.135l.423-.198.358.807h-.424l-.357-.609m8.348 12.422l-1.733-.198.198-1.746 1.733.211-.198 1.733M12.965 6.165l-.186-1.151 1.151-.185.186 1.15-1.151.186m-7.29 4.67l-.688-.86.86-.688.675.86-.847.688m-3.003 2.103l-.225-.555.53-.239.224.543-.529.251"/>
        <path fill="#e0d1af" d="M4.577 6.588l.278-.159-.264.16h-.014"/>
    </g>
</svg>