<svg xmlns="http://www.w3.org/2000/svg" width="120" height="140" viewBox="0 0 31.75 37.042" version="1.1">
    <g stroke-width=".265">
        <path fill="#a4afaf"
              d="M0 9.26L15.875 0 31.75 9.26v18.521l-15.875 9.26L0 27.782V9.261m15.584-5.438l1.561.728.979-1.151-1.561-.728-.979 1.151m7.792 2.95l-.979 1.151 1.561.728.979-1.151-1.561-.728m-1.574 4.207l1.547-1.812-2.46-1.138-1.535 1.8 2.448 1.15M8.744 7.435L7.21 9.234l2.447 1.15 1.548-1.812-2.46-1.137M6.931 18.349l-1.535 1.799 2.448 1.151 1.548-1.812-2.46-1.138m3.783-1.918l-1.561-.728-.98 1.151 1.562.728.979-1.151m-5.821 4.431l-1.561-.727-.98 1.15 1.562.728.979-1.15m-.146-4.895l-1.534 1.799 2.447 1.15 1.548-1.812-2.46-1.137m17.263 7.937l-1.534 1.8 2.447 1.15 1.548-1.812-2.46-1.138m-5.702-7.051l1.56.728.98-1.151-1.561-.728-.98 1.151m3.44 3.28l1.548-1.812-2.46-1.137-1.535 1.799 2.447 1.15m-7.316 7.806l-1.56-.728-.98 1.151 1.561.728.98-1.151m14.856-10.319l1.56.728.98-1.151-1.561-.728-.98 1.151m-1.124 9.525l-1.56-.727-.98 1.15 1.561.728.98-1.15m.423-18.39L25.03 8.03l-.98 1.151 1.562.728.979-1.151M22.397 27.94q-.78-.357-1.561-.728l-.979 1.151 1.561.728.979-1.151m4.194-10.742l-1.561-.728-.98 1.151 1.562.728.979-1.151M9.895 30.678l1.561.728.98-1.15-1.562-.729-.979 1.151m-3.704-.436l1.561.727.98-1.15-1.562-.728-.979 1.15"/>
        <path fill="#9ba6a6"
              d="M6.191 30.242l.98-1.151 1.56.728-.979 1.15-1.56-.727M23.375 6.773l1.561.728-.979 1.15-1.561-.727.979-1.15m-7.792-2.95l.979-1.152 1.561.728-.979 1.15-1.561-.727m-6.84 3.612l2.461 1.137-1.548 1.813L7.21 9.234l1.534-1.8m-3.85 13.428l-.978 1.151-1.561-.727.979-1.151 1.56.727m7.541 7.078l-.979 1.15-1.56-.727.978-1.15 1.561.727m7.316-7.805l-2.447-1.151 1.534-1.8 2.461 1.138-1.548 1.813m-3.44-3.281l.98-1.151 1.56.728-.978 1.15-1.561-.727m5.701 7.051l2.461 1.138-1.548 1.812-2.447-1.15 1.534-1.8m4.578-6.707l-.98 1.15-1.56-.727.979-1.15 1.56.727"/>
        <path fill="#a9b6b6"
              d="M21.802 10.98l-2.448-1.15 1.535-1.8 2.46 1.138-1.547 1.812m-11.086 5.45l-.98 1.152-1.56-.728.979-1.151 1.56.728m-3.783 1.918l2.46 1.138-1.547 1.812-2.448-1.151 1.535-1.8m-2.183-2.38l2.46 1.137-1.547 1.813-2.447-1.151 1.534-1.8M22.397 27.94l-.979 1.15-1.561-.727.979-1.15q.78.37 1.561.727m4.194-19.182l-.98 1.15-1.56-.727.979-1.15 1.56.727m-.423 18.388l-.979 1.151-1.56-.727.978-1.151 1.561.727m1.125-9.525l.979-1.15 1.56.727-.978 1.15-1.561-.727M9.895 30.678l.98-1.15 1.56.727-.979 1.151-1.56-.728"/>
    </g>
</svg>