<svg xmlns="http://www.w3.org/2000/svg" width="120" height="140" viewBox="0 0 31.75 37.042" version="1.1">
    <g stroke-width=".265">
        <path fill="#e0d1af" d="M4.511 6.575h-.013l.278-.159-.265.159"/>
        <path fill="#a4afaf"
              d="M8.202 10.226h-1.27l-2.117 1.23q-.264.146-.41.424-.158.251-.158.555v4.128l-1.032 1.204 1.032.49v2.142l.119.212-1.032-.476-.98 1.15 1.562.728.74-.86.239.463-.648.794v2.157q0 .304.158.568.146.265.41.424l2.064 1.204 6.866 4.008 1.482.873q.211.12.463.146h.106q.304 0 .582-.146l.264-.145 2.739-1.601.145-.093.53-.793.343-.397 1.019.476.661-.767 1.826-1.072-.278.318 1.561.727.98-1.15-1.165-.543 1.786-1.045q.251-.159.41-.424l.066-.132.08-.436v-5.875l-.556-.82.556-.873v-4.564q0-.304-.146-.555-.159-.278-.41-.424l-2.342-1.362-1.256-.741.158-.185-2.368-1.085-1.68-.992-2.923-1.707-.252-.119-.33-.053q-.305 0-.57.172l-3.65 2.143-.358.675h-.807l-1.667-.767L7.21 9.234l1.482.701-.053.132-.437.16M0 9.26L15.875 0 31.75 9.26v18.521l-15.875 9.26L0 27.782V9.261m23.376-2.488l-.979 1.151 1.561.728.979-1.151-1.561-.728m.675 2.408l1.56.728.98-1.151-1.561-.728-.98 1.151m-8.466-5.358l1.561.728.979-1.151-1.561-.728-.98 1.151M28.272 16.47l-.98 1.151 1.562.728.979-1.151-1.561-.728M10.874 29.527l-.979 1.151 1.561.728.98-1.15-1.562-.729M7.752 30.97l.98-1.15-1.562-.728-.979 1.15 1.561.728"/>
        <path fill="#9ba6a6"
              d="M8.692 9.935L7.21 9.234l1.534-1.8 1.667.768-1.323.767-.396.966M4.657 21.153l-.741.86-1.561-.727.979-1.151 1.032.476.29.542m18.72-14.38l1.561.728-.979 1.15-1.561-.727.979-1.15m-7.792-2.95l.979-1.152 1.56.728-.978 1.15-1.561-.727M7.752 30.97l-1.56-.727.978-1.151 1.561.728-.979 1.15"/>
        <path fill="#a9b6b6"
              d="M20.981 8.083l2.368 1.085-.158.185-.543-.317h-.873l-.37-.649-.066-.106-.358-.198m4.022 18.52l1.164.543-.979 1.151-1.56-.727.277-.318 1.098-.648m-2.923 1.72l-.662.767-1.019-.476.053-.053.98.132.648-.37M4.247 18.256l-1.032-.49 1.032-1.203v1.693M24.05 9.181l.979-1.15 1.56.727-.978 1.15-1.561-.727m4.22 7.29l1.56.727-.978 1.15-1.561-.727.979-1.15M10.874 29.527l1.561.727-.979 1.151-1.56-.728.978-1.15"/>
    </g>
</svg>