<svg xmlns="http://www.w3.org/2000/svg" width="87.3" height="100.45" viewBox="0 0 23.098 26.577" version="1.1">
    <g stroke-width=".265">
        <path fill="#a4afaf"
              d="M0 11.245V7.223q0-.304.159-.556.145-.277.41-.423l2.117-1.23h1.64l.119-.265.886.41L6.88 3.347l-.74-.344.026-.013h.807l.357-.675L10.98.172Q11.245 0 11.55 0q.303 0 .581.172l4.802 2.805-.37-.172-1.535 1.799 2.448 1.15 1.415-1.64 3.651 2.13q.252.146.41.423.146.252.146.556v4.564l-.556.873.556.82v5.874q0 .305-.145.57-.16.264-.41.422l-1.8 1.059-.463-.212-.807.953-1.825 1.071.423-.503-1.561-.727-.979 1.15.542.252-.793 1.204-3.149 1.839-.476.145h-.106q-.304 0-.569-.145L.57 20.346q-.265-.158-.41-.423Q0 19.66 0 19.354v-2.156l.648-.794-.278-.529.199-.238-.437-.199-.132-.25V13.07l1.336.622 1.548-1.812-2.46-1.138-.424.503m14.512.714l-1.534 1.8 2.447 1.15 1.548-1.812-2.46-1.138m-.966.397l.979-1.15-1.561-.729-.98 1.151 1.562.728m6.178.04l1.56.727.98-1.15-1.561-.728-.98 1.15m-3.545 8.057l-.026.027 2.447 1.15 1.548-1.812-2.46-1.137-1.509 1.772m-9.048 3.413l.978-1.15-1.56-.728-.98 1.15 1.562.728m-2.064-9.604l-2.46-1.138-1.535 1.8 2.447 1.15 1.548-1.812m.344-1.905l.979-1.15-1.561-.728-.98 1.15 1.562.728"/>
        <path fill="#a9b6b6"
              d="M5.41 12.356l-1.56-.728.979-1.15 1.56.727-.978 1.151M0 11.245l.423-.503 2.461 1.138-1.548 1.812L0 13.07v-1.825m16.073 12.144l-.542-.251.979-1.151 1.561.727-.423.503-.463.265-1.085-.146-.027.053m3.4-1.243l.807-.953.463.212-1.27.74m-.582-18.03l-1.415 1.64-2.448-1.151 1.535-1.8.37.173.16.092.436.754h.873l.49.291M5.066 14.261l-1.548 1.812-2.447-1.15 1.534-1.8 2.46 1.138"/>
        <path fill="#9ba6a6"
              d="M.132 15.438l.437.199-.199.238-.238-.437M6.138 3.003l.741.344-1.548 1.812-.886-.41.397-.992 1.296-.754m13.587 9.393l.979-1.151 1.56.727-.978 1.151-1.561-.727m-6.178-.04l-1.561-.728.979-1.15 1.56.727-.978 1.151m.965-.397l2.461 1.138-1.548 1.812-2.447-1.15 1.534-1.8m1.667 8.493l1.508-1.772 2.461 1.137L18.6 21.63l-2.447-1.151.026-.027m-9.048 3.413l-1.562-.727.98-1.151 1.56.727-.978 1.151"/>
    </g>
</svg>